<svg xmlns="http://www.w3.org/2000/svg" xmlns:xlink="http://www.w3.org/1999/xlink" xmlns:lucid="lucid" width="1455.73" height="541.93"><g transform="translate(74.97005324034967 4.551646409697014)" lucid:page-tab-id="0_0"><path d="M-500-500h2000v1500H-500z" fill="#fff"/><path d="M-73.97 2.45a6 6 0 0 1 6-6h1441.73a6 6 0 0 1 6 6v527.93a6 6 0 0 1-6 6H-67.97a6 6 0 0 1-6-6z" stroke="#000" stroke-opacity="0" stroke-width="2" fill="#fff"/><path d="M723.53 38.9a6 6 0 0 1 6-6h604.27a6 6 0 0 1 6 6v455.62a6 6 0 0 1-6 6H729.53a6 6 0 0 1-6-6z" stroke="#4c535d" stroke-width="2" fill="#fff"/><use xlink:href="#a" transform="matrix(1,0,0,1,723.5282651731798,32.91180996898652) translate(78 51.51555555555555)"/><use xlink:href="#b" transform="matrix(1,0,0,1,723.5282651731798,32.91180996898652) translate(170.55555555555554 51.51555555555555)"/><use xlink:href="#c" transform="matrix(1,0,0,1,723.5282651731798,32.91180996898652) translate(322.7511111111111 51.51555555555555)"/><path d="M745.7 47.46H778c5.9 0 8.87 3.05 8.87 9.1v31.8c0 6.05-2.96 9.1-8.86 9.1h-32.28c-5.9 0-8.86-3.05-8.86-9.1v-31.8c0-6.05 2.96-9.1 8.86-9.1z" stroke="#000" stroke-opacity="0" stroke-width=".64" fill="#000b1d"/><path d="M775.76 85.06h-5.94c-.56 0-1-.3-1.25-.8L762.1 68.8c0-.1-.03-.2-.13-.2-.15-.04-.3 0-.36.16l-4.03 9.85v.1c0 .2.14.36.34.36h4.42c.25 0 .5.2.6.45l1.95 4.4c.14.46 0 .9-.4 1.1-.1.06-.2.06-.36.06H748.1c-.4 0-.75-.35-.75-.75 0-.1.04-.2.1-.3l10.2-25c.2-.54.7-.84 1.3-.84h5.9c.6 0 1.1.3 1.3.85l10.3 25c.15.4 0 .8-.4 1-.1.06-.15.06-.25.06z" stroke="#000" stroke-opacity="0" stroke-width=".64" fill="#fa0f00"/><path d="M740.04 120.3a6 6 0 0 1 6-6h567.7a6 6 0 0 1 6 6V473.4a6 6 0 0 1-6 6h-567.7a6 6 0 0 1-6-6z" fill="#fff"/><path d="M743.3 114.95l.88-.36.92-.23.94-.08h2.98m4 0h5.96m4 0h5.96m4 0h5.96m4 0h5.96m4 0h5.96m3.98 0h5.98m4 0h5.96m3.98 0h5.98m3.98 0h5.98m3.98 0h5.98m3.98 0h5.98m3.98 0h5.98m3.98 0h5.98m3.98 0h5.98m3.98 0h5.98m3.98 0h5.98m3.98 0h5.98m3.98 0h5.98m3.98 0h5.98m3.98 0h5.98m3.98 0h5.97m4 0h5.96m4 0h5.96m3.98 0h5.97m4 0H998m4 0h5.97m4 0h5.96m4 0h5.96m3.98 0h5.97m4 0h5.96m4 0h5.97m3.98 0h5.98m3.98 0h6m3.97 0h5.98m3.98 0h5.98m4 0h5.97m3.98 0h5.98m3.98 0h6m3.97 0h5.98m3.98 0h5.98m4 0h5.97m3.98 0h5.98m3.98 0h6m3.97 0h5.97m4 0h5.96m4 0h5.96m4 0h5.96m4 0h5.96m4 0h5.96m4 0h5.96m4 0h5.96m4 0h5.96m3.98 0h5.98m3.98 0h5.98m3.98 0h5.98m3.98 0h5.98m3.98 0h3l.93.07.92.22.86.35m2.62 2.62l.36.87.22.92.07.93v3.02m0 4.04v6.05m0 4.05v6.05m0 4.03v6.06m0 4.03v6.05m0 4.03v6.07m0 4.03v6.06m0 4.03v6.05m0 4.03v6.06m0 4.03v6.06m0 4.03v6.06m0 4.03v6.05m0 4.04v6.05m0 4.03v6.05m0 4.04v6.05m0 4.04v6.06m0 4.04v6.05m0 4.04v6.04m0 4.04v6.05m0 4.03v6.06m0 4.03v6.06m0 4.04v6.06m0 4.03v6.06m0 4.02v6.06m0 4.03v6.06m0 4.04v6.06m0 4.03v6.04m0 4.04v6.05m0 4.04v6.05m0 4.04v6.05m0 4.05V426m0 4.04v6.05m0 4.03v6.05m0 4.04v6.05m0 4.04v6.06m0 4.03v3.02l-.07.94-.22.9-.36.88m-2.63 2.63l-.86.36-.93.22-.94.07h-3m-3.97 0h-5.98m-3.98 0h-5.98m-3.98 0h-5.97m-4 0h-5.96m-3.98 0h-5.97m-4 0H1251m-4 0h-5.97m-4 0h-5.96m-4 0h-5.96m-3.98 0h-5.97m-4 0h-5.96m-4 0h-5.97m-4 0h-5.96m-3.98 0h-6m-3.97 0h-5.98m-3.98 0h-5.98m-4 0h-5.97m-3.98 0h-5.98m-3.98 0h-6m-3.97 0h-5.98m-3.98 0h-5.98m-4 0h-5.97m-3.98 0h-5.98m-3.98 0h-6m-3.97 0h-5.98m-3.98 0h-5.97m-4 0h-5.96m-4 0h-5.96m-4 0h-5.96m-4 0h-5.96m-4 0H1002m-4 0h-5.96m-4 0h-5.96m-4 0h-5.96m-4 0h-5.96m-4 0h-5.96m-4 0h-5.96m-3.98 0h-5.98m-3.98 0h-5.98m-3.98 0h-5.98m-3.98 0h-5.98m-3.98 0h-5.98m-3.98 0h-5.98m-3.98 0h-5.98m-3.98 0h-5.98m-3.98 0h-5.98m-3.98 0h-5.98m-3.98 0h-5.98m-3.98 0h-5.98m-3.98 0h-5.98m-3.98 0h-5.98m-3.98 0h-5.97m-4 0h-5.96m-4 0h-5.97m-4 0h-5.96m-4 0h-5.96m-3.98 0h-2.98l-.94-.07-.92-.22-.87-.36m-2.6-2.63l-.37-.87-.22-.9-.06-.95v-3.03m0-4.04v-6.06m0-4.03v-6.05m0-4.04v-6.05m0-4.04v-6.06m0-4.04v-6.05m0-4.04v-6.04m0-4.04v-6.05m0-4.04v-6.05m0-4.04v-6.05m0-4.05v-6.05m0-4.04v-6.05m0-4.02v-6.06m0-4.03v-6.07m0-4.03v-6.06m0-4.03v-6.05m0-4.03v-6.06m0-4.03v-6.05m0-4.04v-6.05m0-4.05v-6.05m0-4.04v-6.05m0-4.03v-6.05m0-4.04v-6.05m0-4.04v-6.06m0-4.04v-6.05m0-4.03v-6.06m0-4.03v-6.06m0-4.03v-6.06m0-4.03v-6.06m0-4.04v-6.06m0-4.03v-6.06m0-4.02v-6.06m0-4.03v-6.06m0-4.04v-6.05m0-4.04v-6.04m0-4.04v-3.03l.07-.94.23-.92.36-.87" stroke="#979ea8" stroke-width="2" fill="none"/><use xlink:href="#d" transform="matrix(1,0,0,1,740.0357685838213,114.29425653560793) translate(30 42.511111111111106)"/><use xlink:href="#e" transform="matrix(1,0,0,1,740.0357685838213,114.29425653560793) translate(116.3111111111111 42.511111111111106)"/><use xlink:href="#f" transform="matrix(1,0,0,1,740.0357685838213,114.29425653560793) translate(165.68888888888887 42.511111111111106)"/><use xlink:href="#g" transform="matrix(1,0,0,1,740.0357685838213,114.29425653560793) translate(190.59999999999997 42.511111111111106)"/><path d="M765.2 213.14a10 10 0 0 1 10-10h306.9a10 10 0 0 1 10 10v31.96a10 10 0 0 1-10 10H775.2a10 10 0 0 1-10-10z" stroke="#000" stroke-opacity="0" stroke-width="3" fill="#e81313"/><use xlink:href="#h" transform="matrix(1,0,0,1,765.1903757346854,203.14198114389865) translate(82.78888888888889 34.25888888888889)"/><use xlink:href="#i" transform="matrix(1,0,0,1,765.1903757346854,203.14198114389865) translate(129.38444444444445 34.25888888888889)"/><use xlink:href="#j" transform="matrix(1,0,0,1,765.1903757346854,203.14198114389865) translate(168.54888888888888 34.25888888888889)"/><path d="M933.62 418.56a6 6 0 0 1 6-6h129.93a6 6 0 0 1 6 6v34.62a6 6 0 0 1-6 6H939.62a6 6 0 0 1-6-6z" stroke="#e81313" stroke-width="2" fill="#fff"/><use xlink:href="#k" transform="matrix(1,0,0,1,938.6167230467894,417.5653172711047) translate(6.753333333333352 15.81916666666666)"/><use xlink:href="#l" transform="matrix(1,0,0,1,938.6167230467894,417.5653172711047) translate(44.60666666666667 15.81916666666666)"/><use xlink:href="#m" transform="matrix(1,0,0,1,938.6167230467894,417.5653172711047) translate(88.41999999999999 15.81916666666666)"/><use xlink:href="#n" transform="matrix(1,0,0,1,938.6167230467894,417.5653172711047) translate(98.92666666666665 15.81916666666666)"/><use xlink:href="#o" transform="matrix(1,0,0,1,938.6167230467894,417.5653172711047) translate(44.15333333333334 32.51249999999999)"/><path d="M777.63 418.56a6 6 0 0 1 6-6h129.93a6 6 0 0 1 6 6v34.62a6 6 0 0 1-6 6H783.63a6 6 0 0 1-6-6z" stroke="#e81313" stroke-width="2" fill="#fff"/><use xlink:href="#p" transform="matrix(1,0,0,1,782.6272043328642,417.5653172711047) translate(25.62666666666668 15.81916666666666)"/><use xlink:href="#q" transform="matrix(1,0,0,1,782.6272043328642,417.5653172711047) translate(69.54666666666665 15.81916666666666)"/><use xlink:href="#n" transform="matrix(1,0,0,1,782.6272043328642,417.5653172711047) translate(80.05333333333331 15.81916666666666)"/><use xlink:href="#r" transform="matrix(1,0,0,1,782.6272043328642,417.5653172711047) translate(32.20666666666668 32.51249999999999)"/><path d="M763.2 300.15a10 10 0 0 1 10-10h308.25a10 10 0 0 1 10 10V408.2a10 10 0 0 1-10 10H773.2a10 10 0 0 1-10-10z" stroke="#000" stroke-opacity="0" stroke-width="3" fill="#e81313"/><use xlink:href="#s" transform="matrix(1,0,0,1,763.214915555391,290.1489916685584) translate(102.56888888888888 58.32138888888889)"/><use xlink:href="#t" transform="matrix(1,0,0,1,763.214915555391,290.1489916685584) translate(189.53777777777776 58.32138888888889)"/><use xlink:href="#u" transform="matrix(1,0,0,1,763.214915555391,290.1489916685584) translate(95.21777777777777 80.57916666666667)"/><use xlink:href="#v" transform="matrix(1,0,0,1,763.214915555391,290.1489916685584) translate(138.0622222222222 80.57916666666667)"/><use xlink:href="#w" transform="matrix(1,0,0,1,763.214915555391,290.1489916685584) translate(191.4311111111111 80.57916666666667)"/><path d="M928.64 256.1v2.7m0 3.62v5.42m0 3.6v2.72" stroke="#e81313" stroke-width="2" fill="none"/><path d="M929.6 256.13h-1.94v-1.03h1.95z" stroke="#e81313" stroke-width=".05" fill="#e81313"/><path d="M928.64 288.15l-7.5-13h15z" stroke="#e81313" stroke-width="2" fill="#e81313"/><path d="M1138.67 398.87a6 6 0 0 1 6-6h145.12a6 6 0 0 1 6 6v28.7a6 6 0 0 1-6 6h-145.13a6 6 0 0 1-6-6z" stroke="#e81313" stroke-width="1.5" fill="#fff"/><use xlink:href="#x" transform="matrix(1,0,0,1,1142.6670929375227,396.86732078029775) translate(23.311111111111117 29.071388888888883)"/><use xlink:href="#y" transform="matrix(1,0,0,1,1142.6670929375227,396.86732078029775) translate(82.33333333333333 29.071388888888883)"/><path d="M1133.47 309.22a6 6 0 0 1 6-6h155.42a6 6 0 0 1 6 6v89.43a6 6 0 0 1-6 6h-155.43a6 6 0 0 1-6-6z" stroke="#e81313" stroke-width="1.5" fill="#e81313"/><use xlink:href="#z" transform="matrix(1,0,0,1,1141.4721546579415,311.21733807716686) translate(41.26222222222223 62.26380088888888)"/><use xlink:href="#A" transform="matrix(1,0,0,1,1141.4721546579415,311.21733807716686) translate(16.05333333333334 84.52157866666664)"/><use xlink:href="#B" transform="matrix(1,0,0,1,1141.4721546579415,311.21733807716686) translate(89.65333333333334 84.52157866666664)"/><path d="M1238 354.37c.73 0 1.5-.52 1.5-1.32v-.84c0-5-12.08-5.82-15.6-8.82-.72-.68-2.02-3.32-.72-5 0 0 2.4-4 2.4-5.67h.55c.93 0 1.47-3.3 1.47-4.82 0-.96-.36-1.48-.7-1.64-.6 0-.6-.32-.6-.32v-2.36c0-4.15-.35-6.47-2.94-6.63-.18 0-.36-.2-.36-.36-.58-1.3-3.53-2.15-5.95-2.15-6.3 0-9.3 3.67-9.3 8v3.5s0 .16-.17.32c-.36 0-.72.68-.72 1.64 0 1.52.36 4.83 1.48 4.83h.54c0 1.7 2.4 5.7 2.4 5.7 1.3 1.66 0 4.5-.7 5.14-3.72 3-15.78 3.83-15.78 8.83v.84c0 .65.53 1.17 1.47 1.17H1238z" stroke="#000" stroke-opacity="0" stroke-width="1.46" fill="#fff"/><path d="M1116.73 353.94h-4.53a.12.12 0 0 0-.12.12.12.12 0 0 1-.1.1h-2.94m-3.9 0h-5.86m-3.9 0h-2.93" stroke="#e81313" stroke-width="2" fill="none"/><path d="M1130.72 353.94l-13 7.5v-15z" stroke="#e81313" stroke-width="2" fill="#e81313"/><path d="M1092.47 355.15h-1.02v-1.95h1.02z" stroke="#e81313" stroke-width=".05" fill="#e81313"/><path d="M343.4 118.1a6 6 0 0 1 6-6h294.18a6 6 0 0 1 6 6v237.87a6 6 0 0 1-6 6h-294.2a6 6 0 0 1-6-6z" stroke="#000" stroke-width="2" fill="#fff"/><use xlink:href="#C" transform="matrix(1,0,0,1,348.39128228035486,117.10952494602819) translate(74 40.511111111111106)"/><use xlink:href="#D" transform="matrix(1,0,0,1,348.39128228035486,117.10952494602819) translate(122.95555555555556 40.511111111111106)"/><use xlink:href="#E" transform="matrix(1,0,0,1,348.39128228035486,117.10952494602819) translate(203.64444444444445 40.511111111111106)"/><path d="M366.57 126.78h32.3c5.9 0 8.86 3.05 8.86 9.1v31.8c0 6.05-2.96 9.1-8.86 9.1h-32.3c-5.9 0-8.84-3.05-8.84-9.1v-31.8c0-6.05 2.94-9.1 8.84-9.1z" stroke="#000" stroke-opacity="0" stroke-width=".64" fill="#000b1d"/><path d="M396.63 164.38h-5.95c-.56 0-1-.3-1.25-.8l-6.45-15.45c0-.1-.06-.2-.16-.2-.14-.05-.3 0-.34.15l-4.06 9.85v.1c0 .2.15.35.35.35h4.4c.25 0 .5.2.6.45l1.96 4.4c.14.45 0 .9-.4 1.1-.1.05-.2.05-.35.05h-16.06c-.4 0-.75-.35-.75-.75 0-.1.06-.2.1-.3l10.2-25c.2-.55.7-.85 1.3-.85h5.9c.6 0 1.1.3 1.3.85l10.3 25c.16.4 0 .8-.4 1-.1.05-.14.05-.25.05z" stroke="#000" stroke-opacity="0" stroke-width=".64" fill="#fa0f00"/><path d="M359.3 198.33a6 6 0 0 1 6-6h264.2a6 6 0 0 1 6 6V341.2a6 6 0 0 1-6 6H365.3a6 6 0 0 1-6-6z" fill="#fff"/><path d="M362.58 193l.87-.38.92-.22.94-.07h3.06m4.06 0h6.1m4.06 0h6.1m4.06 0h6.1m4.06 0h6.1m4.06 0h6.1m4.06 0h6.1m4.07 0h6.08m4.07 0h6.1m4.06 0h6.1m4.07 0h6.1m4.06 0h6.1m4.06 0h6.1m4.05 0h6.1m4.06 0h6.1m4.08 0h6.1m4.06 0h6.1m4.06 0h6.1m4.06 0h6.1m4.06 0h6.1m4.06 0h6.1m4.06 0h6.1m4.06 0h6.1m4.07 0h6.1m4.06 0h6.1m4.06 0h6.08m4.07 0h3.05l.94.07.9.22.88.37m2.62 2.6l.36.88.22.9.08.95v3.06m0 4.07v6.13m0 4.08v6.12m0 4.08V232m0 4.1v6.1m0 4.1v6.1m0 4.1v6.12m0 4.08v6.12m0 4.08v6.13m0 4.08v6.13m0 4.08v6.14m0 4.08v6.12m0 4.08v6.13m0 4.08v6.12m0 4.08v3.06l-.08.93-.22.92-.36.87m-2.62 2.62l-.87.36-.9.22-.95.07h-3.05m-4.07 0h-6.1m-4.06 0h-6.1m-4.06 0h-6.1m-4.06 0h-6.1m-4.06 0h-6.1m-4.06 0h-6.1m-4.06 0h-6.1m-4.06 0h-6.1m-4.06 0H535m-4.07 0h-6.1m-4.06 0h-6.1m-4.06 0h-6.1m-4.05 0h-6.1m-4.06 0h-6.1m-4.07 0h-6.1m-4.06 0h-6.1m-4.06 0h-6.1m-4.06 0h-6.1m-4.06 0h-6.1m-4.06 0h-6.1m-4.06 0h-6.1m-4.06 0h-6.1m-4.06 0h-6.1m-4.06 0h-6.1m-4.06 0h-6.1m-4.06 0h-3.05l-.93-.08-.92-.22-.87-.36m-2.62-2.62l-.36-.87-.22-.92-.07-.94v-3.07m0-4.08v-6.12m0-4.08v-6.13m0-4.08v-6.12m0-4.08v-6.13m0-4.07v-6.12m0-4.07v-6.13m0-4.08v-6.12m0-4.08v-6.12m0-4.1v-6.1m0-4.1v-6.1m0-4.1v-6.12m0-4.08v-6.12m0-4.08v-6.13m0-4.08v-3.07l.08-.94.22-.92.36-.87" stroke="#979ea8" stroke-width="2" fill="none"/><use xlink:href="#F" transform="matrix(1,0,0,1,359.30666701308803,192.3309910035022) translate(70 34.00888888888889)"/><use xlink:href="#G" transform="matrix(1,0,0,1,359.30666701308803,192.3309910035022) translate(105.1288888888889 34.00888888888889)"/><use xlink:href="#H" transform="matrix(1,0,0,1,359.30666701308803,192.3309910035022) translate(189.02222222222224 34.00888888888889)"/><use xlink:href="#I" transform="matrix(1,0,0,1,359.30666701308803,192.3309910035022) translate(70 47.73244444444445)"/><use xlink:href="#J" transform="matrix(1,0,0,1,359.30666701308803,192.3309910035022) translate(107.17333333333333 47.73244444444445)"/><use xlink:href="#K" transform="matrix(1,0,0,1,359.30666701308803,192.3309910035022) translate(135.64 47.73244444444445)"/><use xlink:href="#L" transform="matrix(1,0,0,1,359.30666701308803,192.3309910035022) translate(163.0533333333333 47.73244444444445)"/><use xlink:href="#M" transform="matrix(1,0,0,1,359.30666701308803,192.3309910035022) translate(205.59999999999997 47.73244444444445)"/><path d="M417.94 248.15h-35.4c-3.08 0-5.6-2.5-5.6-5.58v-33.42h46.6v33.42c0 3.1-2.53 5.58-5.6 5.58z" stroke="#000" stroke-opacity="0" fill="#3e3e3e"/><path d="M415.57 236.08c-2.1 0-3.87-.9-4.7-2.16-.2-.28-.58-.28-.77 0-.82 1.28-2.62 2.16-4.74 2.16-2.1 0-3.9-.9-4.73-2.16-.2-.3-.6-.3-.78 0-.83 1.28-2.63 2.16-4.74 2.16-2.1 0-3.9-.9-4.72-2.16-.2-.28-.6-.28-.78 0-.8 1.28-2.6 2.16-4.62 2.16-1.4 0-2.66-.4-3.6-1.06-.27-.2-.7.04-.7.4v9.02h39.12v-9.95c-.94.95-2.46 1.58-4.23 1.58z" stroke="#000" stroke-opacity="0" fill="#804998"/><path d="M415.57 236.08c-2.1 0-3.87-.9-4.7-2.16-.2-.28-.58-.28-.77 0-.82 1.28-2.62 2.16-4.74 2.16-2.1 0-3.9-.9-4.73-2.16-.2-.3-.6-.3-.78 0-.83 1.28-2.63 2.16-4.74 2.16-2.1 0-3.9-.9-4.72-2.16-.2-.28-.6-.28-.78 0-.8 1.28-2.6 2.16-4.62 2.16-1.4 0-2.66-.4-3.6-1.06-.27-.2-.7.04-.7.4v9.02h39.12v-9.95c-.94.95-2.46 1.58-4.23 1.58z" stroke="#000" stroke-opacity="0" fill="#fff" fill-opacity=".1"/><path d="M415.57 236.08c-2.1 0-3.87-.9-4.7-2.16-.2-.28-.58-.28-.77 0-.82 1.28-2.62 2.16-4.74 2.16-2.1 0-3.9-.9-4.73-2.17-.2-.27-.6-.27-.78 0-.83 1.3-2.63 2.18-4.74 2.18-2.1 0-3.9-.9-4.72-2.16-.2-.28-.6-.28-.78 0-.8 1.28-2.6 2.16-4.62 2.16-1.4 0-2.66-.4-3.6-1.05-.27-.2-.7.02-.7.4v1.75c.9 1 2.5 1.7 4.3 1.7 2.5 0 4.58-1.3 5-3.03.48 1.72 2.6 3.02 5.13 3.02 2.55 0 4.67-1.3 5.14-3.03.47 1.72 2.58 3.03 5.12 3.03 2.55 0 4.66-1.3 5.13-3.03.42 1.72 2.53 3.03 5.07 3.03 1.77 0 3.3-.63 4.23-1.6v-2.78c-.94.95-2.46 1.58-4.23 1.58z" stroke="#000" stroke-opacity="0" fill="#fff" fill-opacity=".2"/><path d="M415.57 208.22c-2.1 0-3.87-.88-4.7-2.16-.2-.28-.58-.28-.77 0-.82 1.28-2.62 2.16-4.74 2.16-2.1 0-3.9-.88-4.73-2.16-.2-.3-.6-.3-.78 0-.83 1.28-2.63 2.16-4.74 2.16-2.1 0-3.9-.88-4.72-2.16-.2-.28-.6-.28-.78 0-.8 1.28-2.6 2.16-4.62 2.16-1.4 0-2.66-.4-3.6-1.06-.27-.2-.7.04-.7.4v9.02h39.12v-8.97c0-.35-.4-.6-.7-.38-.94.62-2.16 1-3.53 1z" stroke="#000" stroke-opacity="0" fill="#59b4d9"/><path d="M415.57 222.15c-2.1 0-3.87-.88-4.7-2.16-.2-.3-.58-.3-.77 0-.82 1.27-2.62 2.15-4.74 2.15-2.1 0-3.9-.88-4.73-2.16-.2-.3-.6-.3-.78 0-.83 1.27-2.63 2.15-4.74 2.15-2.1 0-3.9-.88-4.72-2.16-.2-.3-.6-.3-.78 0-.8 1.27-2.6 2.15-4.62 2.15-1.4 0-2.66-.4-3.6-1.06-.27-.2-.7.03-.7.4v9h39.12v-9.94c-.94.96-2.46 1.6-4.23 1.6z" stroke="#000" stroke-opacity="0" fill="#b8d432"/><path d="M415.57 222.15c-2.1 0-3.87-.9-4.7-2.16-.2-.3-.58-.3-.77 0-.82 1.26-2.62 2.15-4.74 2.15-2.1 0-3.9-.9-4.73-2.16-.2-.3-.6-.3-.78 0-.83 1.26-2.63 2.15-4.74 2.15-2.1 0-3.9-.9-4.72-2.16-.2-.3-.6-.3-.78 0-.8 1.26-2.6 2.15-4.62 2.15-1.4 0-2.66-.4-3.6-1.05-.27-.2-.7.02-.7.4v1.75c.9 1 2.5 1.7 4.3 1.7 2.5 0 4.58-1.3 5-3.03.48 1.72 2.6 3.02 5.13 3.02 2.55 0 4.67-1.3 5.14-3.03.47 1.73 2.58 3.04 5.12 3.04 2.55 0 4.66-1.3 5.13-3.03.42 1.73 2.53 3.04 5.07 3.04 1.77 0 3.3-.63 4.23-1.6v-2.78c-.94.96-2.46 1.6-4.23 1.6z" stroke="#000" stroke-opacity="0" fill="#fff" fill-opacity=".2"/><path d="M427.55 320.58a6 6 0 0 1 6-6H572.8a6 6 0 0 1 6 6v14.7a6 6 0 0 1-6 6H433.56a6 6 0 0 1-6-6z" fill="none"/><use xlink:href="#N" transform="matrix(1,0,0,1,432.54971512273426,319.57999533977227) translate(0 13.66)"/><path d="M523.58 280.3h25.97c.86 0 1.57-.68 1.57-1.54V262.7c0-.86-.7-1.58-1.57-1.58h-23.3c-.84 0-1.55.72-1.55 1.58v15.68c0 .62-.5 1.12-1.12 1.12-.62 0-1.12-.5-1.12-1.12v-20.44c0-.4.32-.75.74-.75h7.8c.27 0 .66.2.77.45l.45.8c.26.5.9.9 1.5.9h14.56c.42 0 .74.36.74.76 0 .25.2.42.4.42.25 0 .43-.17.43-.4 0-.87-.7-1.56-1.57-1.56h-14.56c-.3 0-.65-.24-.8-.48l-.44-.8c-.26-.52-.9-.9-1.47-.9h-7.8c-.86 0-1.57.7-1.57 1.56v20.44c0 1.07.9 1.93 1.95 1.93zm1.94-1.92l-.02-15.68c0-.4.35-.77.76-.77h23.3c.4 0 .73.34.73.77v16.06c0 .4-.33.74-.75.74h-24.4c.23-.3.37-.7.37-1.12zM523.86 309.52h25.98c.85 0 1.56-.7 1.56-1.55V291.9c0-.85-.7-1.57-1.56-1.57h-23.3c-.85 0-1.56.72-1.56 1.58v15.7c0 .6-.5 1.1-1.12 1.1-.62 0-1.12-.5-1.12-1.1v-20.45c0-.4.33-.75.74-.75h7.8c.28 0 .66.22.78.46l.44.8c.27.5.9.9 1.5.9h14.57c.4 0 .74.36.74.76 0 .24.2.4.42.4.24 0 .4-.16.4-.4 0-.86-.7-1.55-1.55-1.55H534c-.3 0-.64-.24-.8-.48l-.43-.82c-.27-.5-.92-.9-1.48-.9h-7.82c-.86 0-1.56.7-1.56 1.57v20.44c0 1.06.88 1.92 1.94 1.92zm1.95-1.93l-.02-15.7c0-.4.35-.76.76-.76h23.3c.4 0 .73.34.73.77v16.07c0 .4-.32.74-.73.74h-24.42c.24-.3.4-.68.4-1.1zM458.92 268.82h52.98c.94 0 1.75.76 1.75 1.76v36.47c0 1-.8 1.76-1.75 1.76h-1.8c-.48 0-.88.42-.88.95 0 .47.4.88.87.88h1.8c1.95 0 3.56-1.6 3.56-3.52V270.6c0-2-1.6-3.58-3.56-3.58h-52.98c-1.95 0-3.56 1.58-3.56 3.58v35.64c0 1.4-1.13 2.6-2.54 2.6-1.4 0-2.55-1.2-2.55-2.6v-45.98c0-.94.74-1.76 1.67-1.76h17.78c.6 0 1.47.53 1.74 1.06l1 1.88c.6 1.17 2.1 2 3.43 2H509c.94 0 1.67.76 1.67 1.76 0 .52.46.94.93.94.54 0 .94-.42.94-.94 0-2-1.6-3.6-3.55-3.6H475.9c-.68 0-1.5-.5-1.82-1.04l-1-1.82c-.6-1.18-2.1-2.06-3.36-2.06h-17.78c-1.94 0-3.55 1.6-3.55 3.58v45.98c0 2.4 2 4.4 4.42 4.4h25.95c.54 0 .94-.4.94-.93 0-.48-.4-.9-.93-.9h-22.4c.54-.76.87-1.64.87-2.58l-.06-35.64c0-.94.8-1.76 1.74-1.76z" stroke="#000" stroke-opacity="0" stroke-width=".25" fill="#1d1d1b"/><path d="M494.46 315.4c6.24 0 12.6-1.6 12.6-4.65v-20.62c0-2.93-7.9-3.7-12.6-3.7-4.62 0-12.54.77-12.54 3.7v20.62c0 3.05 6.3 4.63 12.54 4.63zm10.73-18.16c-.4.7-4.3 1.94-10.74 1.94-6.43 0-10.32-1.24-10.73-1.94v-5c2.62 1.24 7.5 1.65 10.73 1.65 3.3 0 8.12-.42 10.73-1.65v5zM494.45 301c3.3 0 8.12-.4 10.73-1.65v5c-.4.7-4.3 1.93-10.74 1.93-6.43 0-10.32-1.23-10.73-1.93v-5c2.62 1.24 7.45 1.65 10.73 1.65zm0 12.56c-6.64 0-10.73-1.82-10.73-2.8v-4.24c2.62 1.23 7.5 1.58 10.73 1.58 3.3 0 8.12-.35 10.73-1.58v4.23c0 1-4.03 2.8-10.74 2.8zm0-25.3c6.3 0 10.2 1.17 10.73 1.87-.54.7-4.43 1.88-10.74 1.88-6.3 0-10.12-1.16-10.66-1.87.54-.7 4.36-1.88 10.66-1.88z" stroke="#000" stroke-opacity="0" stroke-width=".25" fill="#1d1d1b"/><path d="M749.2 240.6h-81.87a6 6 0 0 1-6-6v-10a6 6 0 0 1 6-6h96.86" stroke="#e81313" stroke-width="2" fill="none"/><path d="M763.2 240.6l-13 7.5v-15z" stroke="#e81313" stroke-width="2" fill="#e81313"/><path d="M765.2 219.6h-1.04v-1.96h1.03z" stroke="#e81313" stroke-width=".05" fill="#e81313"/><path d="M-34.92 118.1a6 6 0 0 1 6-6H258.4a6 6 0 0 1 6 6v237.7a6 6 0 0 1-6 6H-28.9a6 6 0 0 1-6-6z" stroke="#4c535d" stroke-width="2" fill="#fff"/><use xlink:href="#O" transform="matrix(1,0,0,1,-29.92045013806778,117.10952494602819) translate(74 40.511111111111106)"/><path d="M-19.18 123.77h48.5v52.43h-48.5z" fill-opacity="0"/><path d="M-19.18 137.45v1.57l24.25 13.64 21.68-12.22v4.93L5.07 157.7l-23.04-13.07-1.2.63v9.5l24.24 13.57 21.68-12.16v4.93L5.07 173.37l-23.04-13.06-1.2.7v1.57L5.06 176.2l24.25-13.63v-9.44l-1.2-.68L5.05 165.5l-21.68-12.27v-4.87l21.67 12.16 24.25-13.63v-9.34l-1.2-.63-23.05 13.05-20.57-11.7L5.07 126.7 22 136.24l1.5-.78v-1.3l-18.43-10.4z" fill="#ff3621"/><path d="M-24.8 198.4a6 6 0 0 1 6-6h264.18a6 6 0 0 1 6 6v142.86a6 6 0 0 1-6 6h-264.2a6 6 0 0 1-6-6z" fill="#fff"/><path d="M-21.54 193.05l.87-.36.92-.23.94-.08h3.04m4.06 0h6.1m4.06 0h6.1m4.06 0h6.1m4.06 0h6.1m4.06 0h6.1m4.06 0h6.1m4.07 0h6.1m4.06 0h6.1m4.06 0h6.1m4.05 0h6.1m4.06 0H96m4.07 0h6.1m4.06 0h6.1m4.06 0h6.1m4.06 0h6.1m4.06 0h6.1m4.06 0h6.1m4.06 0h6.1m4.06 0h6.1m4.06 0h6.1m4.06 0h6.1m4.06 0h6.1m4.06 0h6.1m4.07 0h6.1m4.07 0h6.1m4.06 0h3.05l.94.07.9.22.88.35m2.62 2.62l.36.87.22.92.08.93v3.06m0 4.08v6.12m0 4.08v6.12m0 4.1v6.1m0 4.1v6.1m0 4.1v6.12m0 4.08v6.12m0 4.08v6.13m0 4.07v6.12m0 4.07v6.13m0 4.08v6.12m0 4.08v6.12m0 4.1v6.1m0 4.1v6.1m0 4.1v3.06l-.08.93-.22.9-.36.88m-2.62 2.62l-.87.36-.9.22-.95.08h-3.05m-4.07 0h-6.1m-4.06 0H222m-4.06 0h-6.1m-4.06 0h-6.1m-4.06 0h-6.1m-4.06 0h-6.1m-4.06 0h-6.1m-4.06 0h-6.1m-4.07 0h-6.1m-4.06 0h-6.08m-4.07 0h-6.1m-4.06 0h-6.1m-4.07 0h-6.1m-4.06 0h-6.1m-4.06 0h-6.1m-4.05 0h-6.1m-4.06 0h-6.1m-4.08 0h-6.1m-4.06 0h-6.1m-4.06 0h-6.1m-4.06 0h-6.1m-4.06 0h-6.1m-4.06 0h-6.1m-4.06 0h-6.1m-4.06 0h-6.1m-4.07 0h-3.04l-.95-.08-.92-.22-.87-.36m-2.62-2.62l-.36-.87-.22-.9-.07-.94v-3.07m0-4.1V328m0-4.1v-6.1m0-4.1v-6.12m0-4.08v-6.12m0-4.08v-6.13m0-4.08v-6.13m0-4.08v-6.14m0-4.08v-6.12m0-4.08v-6.13m0-4.08v-6.12m0-4.08v-6.12m0-4.1v-6.1m0-4.1v-6.1m0-4.1v-3.06l.06-.94.22-.92.36-.87" stroke="#979ea8" stroke-width="2" fill="none"/><g><use xlink:href="#P" transform="matrix(1,0,0,1,-24.813801162863328,192.39368708475362) translate(70 40.00888888888889)"/><use xlink:href="#Q" transform="matrix(1,0,0,1,-24.813801162863328,192.39368708475362) translate(114.16 40.00888888888889)"/><use xlink:href="#R" transform="matrix(1,0,0,1,-24.813801162863328,192.39368708475362) translate(154.12444444444444 40.00888888888889)"/></g><path d="M-11.35 246.43C-7.5 239.3-.43 236 6.15 237.48c2.15.44 4.2 1.56 6.32 2.38 2.1.82 4.2 1.86 6.4 2.38 1.52.35 3.27.1 4.88-.13 1.52-.16 1.7-.72.94-2.06-1.62-2.77-3.23-5.54-4.85-8.26l-7.43-12.7c-.8-1.44-1.03-1.4-1.88 0l-5.9 10.1c-.2.3-.32.7-.46.95 2.02.87 4 1.65 5.87 2.56 1.07.55 2 1.37 2.95 2.15.4.34.63.95.94 1.42-.58-.04-1.16 0-1.7-.13-2.15-.47-4.3-1.3-6.45-1.5-3.9-.44-7.66.6-11.33 1.85-.4.12-.9.03-1.35.03.14-.4.14-.86.32-1.2 5.5-9.56 11.1-19.16 16.7-28.72.85-1.46 1.83-1.4 2.68.1 6.6 11.2 13.12 22.44 19.7 33.64 1.44 2.5 1.2 4.06-1.25 5.53-5.6 3.46-11.42 3.9-17.37.87-1.43-.74-2.96-1.34-4.4-2.08-4.6-2.46-9.4-2.46-14.27-.82-1.75.56-3.5 1.38-5.2 2.07-.35.14-.7.28-1.38.53z" stroke="#000" stroke-opacity="0" stroke-width="3.13" fill="#08afd5"/><path d="M177.36 285c.97-1.16 1.35-2.38 1.35-3.73l.02-13.03c0-6.42-11.4-11.23-26.44-11.23-14.98 0-26.24 4.82-26.24 11.24v35.94c0 6.42 11.4 11.23 26.37 11.23 15.06 0 3.93 0 5.8-.25 3.34 3.6 8.17 6.04 13.7 6.04 10.16 0 18.45-8.3 18.45-18.5s-5.46-15.4-13-17.7zm-24.95-25.3c13.97 0 23.74 4.56 23.74 8.54 0 4.05-9.77 8.6-23.73 8.6-13.88 0-23.66-4.43-23.66-8.6 0-4.1 9.78-8.53 23.67-8.53zm-23.66 20.1v-6.42c4.12 3.72 13 6.16 23.67 6.16 10.75 0 19.5-2.44 23.74-6.16v7.9c0 1.2-.77 2.24-1.73 3.07-.77 0-1.6-.13-2.5-.13-5.15 0-9.7 2-13.2 5.33-1.98.25-4.1.45-6.3.45-13.88 0-23.66-4.56-23.66-8.6v-1.48zm0 11.48v-4.8c4.12 3.77 13 6.15 23.67 6.15h4.06c-1.73 2.57-2.83 5.65-3.08 8.98h-.97c-13.88 0-23.66-4.54-23.66-8.52v-1.48zm23.67 21.63c-13.88 0-23.66-4.55-23.66-8.6v-6.4c4.12 3.7 13 6.15 23.67 6.15h.98c.25 3.2 1.22 6.16 2.95 8.67-1.22 0-2.57.2-3.92.2zm19.5 5.72c-8.75 0-15.82-7.06-15.82-15.8 0-8.7 7.07-15.77 15.82-15.77 8.68 0 15.75 7.06 15.75 15.78 0 8.73-7.07 15.8-15.75 15.8z" stroke="#000" stroke-opacity="0" stroke-width="2.4"/><path d="M171.9 294.1c-4.7 0-9 2.83-12.22 7.9l-.4.7.4.65c3.2 5.13 7.52 7.95 12.22 7.95 4.63 0 8.94-2.82 12.15-7.95l.4-.65-.4-.7c-3.2-5.07-7.52-7.9-12.15-7.9zm0 14.64c-3.54 0-6.88-2.2-9.4-5.9 2.65-3.92 5.86-5.9 9.4-5.9 3.47 0 6.8 2.17 9.32 5.9-2.63 3.9-5.85 5.9-9.32 5.9z" stroke="#000" stroke-opacity="0" stroke-width="2.4"/><path d="M171.9 298.4c-2.45 0-4.44 2-4.44 4.43 0 2.44 2 4.43 4.44 4.43 2.38 0 4.37-2 4.37-4.43 0-2.44-2-4.43-4.37-4.43zm0 6.04c-.97 0-1.8-.77-1.8-1.74 0-.96.83-1.73 1.8-1.73.9 0 1.73.77 1.73 1.73 0 .97-.83 1.74-1.73 1.74z" stroke="#000" stroke-opacity="0" stroke-width="2.4"/><path d="M133.94 321.7a6 6 0 0 1 6-6h24.9a6 6 0 0 1 6 6v14.7a6 6 0 0 1-6 6h-24.9a6 6 0 0 1-6-6z" fill="none"/><g><use xlink:href="#S" transform="matrix(1,0,0,1,138.94385240337724,320.6910300176882) translate(0 13.506666666666666)"/></g><path d="M28.3 268.7c.3 0 .53 0 .82-.18.24-.12.48-.37.48-.7.47-1 6.27-4.63 17.86-4.63.65 0 1.18-.5 1.18-1.13 0-.7-.53-1.2-1.18-1.2-12.54 0-19.64 4.08-20.05 6.46-.1.63.3 1.2.9 1.38z" stroke="#000" stroke-opacity="0" stroke-width="1.11"/><path d="M78.74 287.15H52.48c-1.65 0-3 1.2-3.3 2.82-7.46.38-22.95-1.76-23.96-8.72v-8.96c7.98 8.45 36.43 8.33 44.42 0v10.46c0 .63.53 1.06 1.18 1.06.65 0 1.12-.5 1.12-1.06v-15.1c-.7-14.63-48.32-14.63-48.9 0v26c.53 7.9 13.6 10.55 21.64 10.98.65 0 1.12-.43 1.12-1.06 0-.7-.4-1.2-1.06-1.2-6.75-.3-18.75-2.56-19.46-8.7v-7.8c5.9 5.16 14.67 6.35 23.9 6.3v21.62c-12.37.7-24.43-4.33-23.9-8.72v-3.44c0-.63-.53-1.07-1.12-1.07-.65 0-1.2.5-1.2 1.06v3.45c-.4 6.53 13.2 11.67 26.15 10.98 0 1.82 1.5 3.32 3.38 3.32h26.26c1.9 0 3.37-1.5 3.37-3.38v-25.4c0-1.88-1.47-3.4-3.36-3.4zm-53.52-19.57c0-4.26 8.93-8.84 22.18-8.84s22.18 4.52 22.18 8.84c0 4.27-8.93 8.78-22.18 8.78-13.3 0-22.18-4.5-22.18-8.78zm34 49.42H52.5c-.65 0-1.12-.5-1.12-1.13v-3.64h7.87V317zm0-7.02h-7.86v-4.96h7.87v4.96zm0-7.22h-7.86V298h7.87v4.76zM69.83 317h-8.4v-4.77h8.4V317zm0-7.02h-8.4v-4.96h8.4v4.96zm0-7.22h-8.4V298h8.4v4.76zm10.05 13.17c0 .63-.48 1.13-1.13 1.13H72v-4.76h7.87v3.63zm0-5.95H72v-4.96h7.87v4.96zm0-7.22H72V298h3.78c.66 0 1.2-.5 1.2-1.2 0-.62-.54-1.12-1.2-1.12H51.36v-4.77c-.12-.8.18-1.5 1.12-1.56h26.26c.65 0 1.13.5 1.13 1.13v12.23z" stroke="#000" stroke-opacity="0" stroke-width="1.11"/><path d="M31.77 321.7a6 6 0 0 1 6-6h26.9a6 6 0 0 1 6 6v14.7a6 6 0 0 1-6 6h-26.9a6 6 0 0 1-6-6z" fill="none"/><g><use xlink:href="#T" transform="matrix(1,0,0,1,36.77422339340099,320.6910300176882) translate(0 13.506666666666666)"/></g><path d="M266.4 236.65h60" stroke="#e81313" stroke-width="2" fill="none"/><path d="M266.44 237.62h-1.03v-1.95h1.04z" stroke="#e81313" stroke-width=".05" fill="#e81313"/><path d="M340.4 236.65l-13 7.5v-15z" stroke="#e81313" stroke-width="2" fill="#e81313"/><path d="M286.42 208.47a16 16 0 0 1 16-16 16 16 0 0 1 16 16 16 16 0 0 1-16 16 16 16 0 0 1-16-16z" stroke="#000" stroke-width="2" fill="#ffe342"/><g><use xlink:href="#U" transform="matrix(1,0,0,1,286.41960023895246,192.4690536055926) translate(11.605 22.008888888888887)"/></g><path d="M102.94 47.87a16 16 0 0 1 16-16 16 16 0 0 1 16 16 16 16 0 0 1-16 16 16 16 0 0 1-16-16z" stroke="#000" stroke-width="2" fill="#ffe342"/><g><use xlink:href="#V" transform="matrix(1,0,0,1,102.9345217850722,31.867445891372903) translate(12.991666666666667 22.008888888888887)"/></g><path d="M721.53 72.86h-3.95m-7.9 0h-7.9m-7.92 0h-7.9m-7.9 0h-7.9m-7.92 0h-7.9m-7.9 0h-7.92m-7.9 0h-7.9m-7.9 0h-7.92m-7.9 0h-7.9m-7.9 0h-7.92m-7.9 0h-7.9m-7.9 0h-7.92m-7.9 0h-7.9m-7.9 0h-7.92m-7.9 0h-7.9m-7.9 0h-7.9m-7.92 0h-7.9m-7.9 0h-7.92m-7.9 0H433m-7.9 0h-7.92m-7.9 0h-7.9m-7.9 0h-7.92m-7.9 0h-7.9m-7.9 0h-7.92m-7.9 0h-7.9m-7.9 0h-7.92m-7.9 0h-7.9m-7.9 0h-7.92m-7.9 0h-7.9m-7.9 0h-7.92m-7.9 0h-7.9m-7.9 0h-7.92m-7.9 0h-7.9m-7.9 0h-7.92m-7.9 0h-7.9m-7.9 0h-7.92m-7.9 0h-7.9m-7.9 0h-7.92m-7.9 0h-3.95a6 6 0 0 0-6 6v4.07m0 8.13v4.06" stroke="#e81313" stroke-width="2" fill="none"/><path d="M722.53 73.84h-1.03V71.9h1.03z" stroke="#e81313" stroke-width=".05" fill="#e81313"/><path d="M114.75 109.1l-7.5-12.98h15z" stroke="#e81313" stroke-width="2" fill="#e81313"/><path d="M680.72 190.55a16 16 0 0 1 16-16 16 16 0 0 1 16 16 16 16 0 0 1-16 16 16 16 0 0 1-16-16z" stroke="#000" stroke-width="2" fill="#ffe342"/><g><use xlink:href="#W" transform="matrix(1,0,0,1,680.7175361224771,174.55238658339647) translate(11.542777777777777 22.008888888888887)"/></g><path d="M947.73 273.08a16 16 0 0 1 16-16 16 16 0 0 1 16 16 16 16 0 0 1-16 16 16 16 0 0 1-16-16z" stroke="#000" stroke-width="2" fill="#ffe342"/><g><use xlink:href="#X" transform="matrix(1,0,0,1,947.7336192329687,257.08463045391215) translate(11.285 22.008888888888887)"/></g><path d="M1095.8 383.53a16 16 0 0 1 16-16 16 16 0 0 1 16 16 16 16 0 0 1-16 16 16 16 0 0 1-16-16z" stroke="#000" stroke-width="2" fill="#ffe342"/><g><use xlink:href="#Y" transform="matrix(1,0,0,1,1095.8061744124234,367.532192104161) translate(11.542777777777777 22.008888888888887)"/></g><path d="M478.03 356.83a16 16 0 0 1 16-16 16 16 0 0 1 16 16 16 16 0 0 1-16 16 16 16 0 0 1-16-16z" stroke="#000" stroke-width="2" fill="#ffe342"/><g><use xlink:href="#Z" transform="matrix(1,0,0,1,478.0280548522403,340.8305837931118) translate(11.133888888888889 22.008888888888887)"/></g><defs><path fill="#4c535d" d="M416-173H177L122-8c-2 6-5 8-11 8H11C5 0 2-3 4-10l206-586c4-10 7-20 9-54 0-4 2-7 6-7h139c5 0 6 1 7 6L602-9c1 6 0 9-6 9H484c-5 0-8-2-10-6zM209-282h175c-22-66-67-207-89-275-16 67-56 184-86 275" id="aa"/><path fill="#4c535d" d="M477-29C277 59 32 5 32-242c0-157 131-281 327-258v-205c0-5 2-7 6-7h109c5 0 5 2 5 6 2 222-5 453 4 668 0 5-1 7-6 9zm-118-73v-293c-108-28-204 34-203 147 1 132 94 173 203 146" id="ab"/><path fill="#4c535d" d="M275-503c154 0 238 117 238 254 0 155-99 259-240 259C106 10 32-119 32-246c0-142 93-257 243-257zm-6 101c-67 0-115 59-115 154 0 92 45 156 121 156 62 0 115-51 115-154 0-83-36-156-121-156" id="ac"/><path fill="#4c535d" d="M70-712h105c7 0 9 1 9 8l1 215c174-55 332 57 327 222C504-25 283 54 70-12c-4-1-7-6-7-9v-684c0-5 3-7 7-7zm319 457c4-124-101-168-204-134v292c109 21 200-30 204-158" id="ad"/><path fill="#4c535d" d="M460-223c-76 7-216 3-306 4 3 70 49 126 151 126 45 0 86-8 124-24 3-2 6-1 6 4v83c0 6-2 9-6 11-38 18-82 29-150 29C97 10 32-118 32-241c0-139 84-262 235-262 172 0 221 136 201 273-1 4-3 6-8 7zm-306-82c60 0 150 1 204-1 1-38-17-101-96-101-69 0-100 53-108 102" id="ae"/><g id="a"><use transform="matrix(0.031111111111111114,0,0,0.031111111111111114,0,0)" xlink:href="#aa"/><use transform="matrix(0.031111111111111114,0,0,0.031111111111111114,18.853333333333335,0)" xlink:href="#ab"/><use transform="matrix(0.031111111111111114,0,0,0.031111111111111114,35.74666666666667,0)" xlink:href="#ac"/><use transform="matrix(0.031111111111111114,0,0,0.031111111111111114,52.67111111111112,0)" xlink:href="#ad"/><use transform="matrix(0.031111111111111114,0,0,0.031111111111111114,69.81333333333333,0)" xlink:href="#ae"/></g><path fill="#4c535d" d="M505-101L490-8c-1 7-3 8-9 8H83c-7 0-9-3-9-8v-641c0-5 2-8 8-8h386c6 0 8 1 9 7l11 93c1 5-1 9-7 9H195v159h260c5 0 7 1 7 7v95c0 5-3 6-7 6H195v172h303c6 0 8 3 7 8" id="af"/><path fill="#4c535d" d="M147-245L-3-484c-3-4-2-9 5-9h120c7 0 9 1 12 7 33 57 62 118 97 173l100-175c3-5 4-5 9-5h106c6 0 8 3 5 8-35 56-112 179-151 234C343-184 425-58 461-8c3 5 2 8-5 8H333c-6 0-10-3-13-8-34-58-66-117-101-174L116-6c-2 4-4 6-11 6H-2c-5 0-8-5-5-9 42-63 111-173 154-236" id="ag"/><path fill="#4c535d" d="M266-503c165 0 247 112 247 240C513-70 354 21 184 8v180c0 4-1 7-7 8-35 4-102 10-107 10-6 0-7-1-7-6-2-219 4-444-3-658 0-1 0-4 4-5 45-15 115-40 202-40zm123 248c6-119-94-169-205-135v295c105 15 199-28 205-160" id="ah"/><path fill="#4c535d" d="M64-493h94c6 0 9 2 11 8 5 13 9 38 10 60 34-42 91-78 160-78 6 0 8 1 8 7v106c0 5-2 7-9 7-71-2-130 23-153 53V-8c0 6-3 8-9 8H72c-7 0-9-3-9-8-2-158 5-329-5-479 0-5 1-6 6-6" id="ai"/><path fill="#4c535d" d="M63-9v-477c0-5 3-7 8-7h106c6 0 8 1 8 7V-8c0 6-2 8-9 8H73c-7 0-10-3-10-9zm61-551c-41 0-68-28-68-69s29-69 69-69c43 0 68 29 68 69 0 41-27 69-69 69" id="aj"/><path fill="#4c535d" d="M157-493c20 2 13 24 19 45 43-36 91-55 145-55 75 0 167 38 167 198V-9c0 7-3 9-8 9H376c-6 0-9-3-9-9v-285c0-66-28-104-86-104-40 0-73 15-97 41V-8c0 5-3 8-8 8H71c-6 0-8-3-8-8-2-157 4-328-4-478 0-5 1-7 7-7h91" id="ak"/><path fill="#4c535d" d="M406-103v89c0 5-1 7-5 8-32 13-72 16-111 16C128 10 32-101 32-245c0-179 172-297 369-247 4 2 5 5 5 11l-1 89c0 7-4 7-8 6-21-8-47-13-86-13-91 0-155 54-155 150 0 144 127 169 243 141 5-2 7 1 7 5" id="al"/><g id="b"><use transform="matrix(0.031111111111111114,0,0,0.031111111111111114,0,0)" xlink:href="#af"/><use transform="matrix(0.031111111111111114,0,0,0.031111111111111114,17.391111111111112,0)" xlink:href="#ag"/><use transform="matrix(0.031111111111111114,0,0,0.031111111111111114,31.702222222222225,0)" xlink:href="#ah"/><use transform="matrix(0.031111111111111114,0,0,0.031111111111111114,48.84444444444445,0)" xlink:href="#ae"/><use transform="matrix(0.031111111111111114,0,0,0.031111111111111114,64.46222222222222,0)" xlink:href="#ai"/><use transform="matrix(0.031111111111111114,0,0,0.031111111111111114,75.56888888888889,0)" xlink:href="#aj"/><use transform="matrix(0.031111111111111114,0,0,0.031111111111111114,83.28444444444445,0)" xlink:href="#ae"/><use transform="matrix(0.031111111111111114,0,0,0.031111111111111114,98.90222222222222,0)" xlink:href="#ak"/><use transform="matrix(0.031111111111111114,0,0,0.031111111111111114,116.04444444444445,0)" xlink:href="#al"/><use transform="matrix(0.031111111111111114,0,0,0.031111111111111114,129.45333333333335,0)" xlink:href="#ae"/></g><path fill="#4c535d" d="M74-7v-641c0-5 2-8 7-8 38-1 112-3 185-3 194 0 266 108 266 218 0 181-150 240-337 228V-8c0 5-2 8-8 8H82c-5 0-8-2-8-7zm121-545v232c108 7 218-4 218-118 0-73-52-116-144-116-35 0-63 1-74 2" id="am"/><path fill="#4c535d" d="M219-89c8 3 23-7 23 5v75c0 7-1 8-6 11C147 21 63 12 63-119v-585c0-5 3-8 9-8h103c6 0 9 3 9 8v574c0 31 11 41 35 41" id="an"/><path fill="#4c535d" d="M316-97v-123c-15-2-32-3-55-3-79 0-114 26-114 69 0 37 26 69 98 69 26 0 49-3 71-12zm117-208c0 89 1 187 0 270-82 35-140 45-208 45C116 10 29-41 29-154c0-125 138-172 287-157 1-38-7-87-101-87-50 0-94 10-131 28-3 1-8 0-8-6v-87c0-5 1-7 6-10 43-20 98-30 152-30 139 0 199 87 199 198" id="ao"/><path fill="#4c535d" d="M296-88v72c0 6-1 10-6 12C184 31 74 7 74-129v-263H11c-5-1-7-3-7-9v-84c0-6 2-8 8-8h63c1-35 5-98 10-123 1-5 3-8 8-9l101-14c5-1 7 0 7 5-3 33-5 92-5 141h97c5 0 7 2 7 7v87c0 5-2 7-7 7h-98v237c-6 61 41 73 95 61 3-1 6 0 6 6" id="ap"/><path fill="#4c535d" d="M243-721c24 0 55-3 55 16v86c-2 12-27-2-38 2-51-8-72 50-66 124h88c7 0 8 2 8 6v88c0 5-2 7-8 7h-88V-8c0 5-1 8-9 8H81c-6 0-8-3-8-8v-384H12c-5 0-6-2-6-7v-88c0-5 2-6 6-6h61c-4-138 43-228 170-228" id="aq"/><path fill="#4c535d" d="M159-493c17 2 12 25 16 46 78-74 220-80 275 10 111-99 334-111 333 129V-8c0 6-4 8-9 8H671c-7 0-9-3-9-9v-288c0-57-23-102-84-102-39 0-73 17-98 41 7 109 1 235 3 350 0 5-1 8-7 8H372c-6 0-9-2-9-9v-291c8-116-119-119-179-61V-8c0 6-2 8-8 8H71c-6 0-8-3-8-9-2-156 4-328-4-477-1-5 2-7 8-7h92" id="ar"/><g id="c"><use transform="matrix(0.031111111111111114,0,0,0.031111111111111114,0,0)" xlink:href="#am"/><use transform="matrix(0.031111111111111114,0,0,0.031111111111111114,17.64,0)" xlink:href="#an"/><use transform="matrix(0.031111111111111114,0,0,0.031111111111111114,26.00888888888889,0)" xlink:href="#ao"/><use transform="matrix(0.031111111111111114,0,0,0.031111111111111114,41.440000000000005,0)" xlink:href="#ap"/><use transform="matrix(0.031111111111111114,0,0,0.031111111111111114,51.39555555555556,0)" xlink:href="#aq"/><use transform="matrix(0.031111111111111114,0,0,0.031111111111111114,60.57333333333334,0)" xlink:href="#ac"/><use transform="matrix(0.031111111111111114,0,0,0.031111111111111114,77.49777777777778,0)" xlink:href="#ai"/><use transform="matrix(0.031111111111111114,0,0,0.031111111111111114,88.54222222222224,0)" xlink:href="#ar"/></g><path fill="#4c535d" d="M218 10C145 10 84-4 43-26c-5-3-7-7-7-15v-104c0-4 4-6 8-4 54 35 120 52 178 52 82 0 117-32 117-75 0-37-24-65-100-97l-48-20C68-341 36-403 36-478c0-107 81-189 232-189 63 0 120 9 153 26 5 3 6 6 6 13v97c0 4-3 8-9 4-38-22-93-33-151-33-86 0-113 36-113 71 0 36 23 61 102 94l38 16c130 54 167 117 167 196 0 117-92 193-243 193" id="as"/><g id="d"><use transform="matrix(0.022222222222222223,0,0,0.022222222222222223,0,0)" xlink:href="#as"/><use transform="matrix(0.022222222222222223,0,0,0.022222222222222223,11.311111111111112,0)" xlink:href="#ao"/><use transform="matrix(0.022222222222222223,0,0,0.022222222222222223,22.333333333333336,0)" xlink:href="#ak"/><use transform="matrix(0.022222222222222223,0,0,0.022222222222222223,34.57777777777778,0)" xlink:href="#ab"/><use transform="matrix(0.022222222222222223,0,0,0.022222222222222223,46.644444444444446,0)" xlink:href="#ad"/><use transform="matrix(0.022222222222222223,0,0,0.022222222222222223,58.88888888888888,0)" xlink:href="#ac"/><use transform="matrix(0.022222222222222223,0,0,0.022222222222222223,71.06666666666666,0)" xlink:href="#ag"/></g><path fill="#4c535d" d="M50-295c0-215 86-372 156-455 3-3 5-5 11-5h101c5 0 8 4 4 9-106 136-163 276-163 450 0 176 57 317 163 453 4 5 1 9-4 9H217c-6 0-8-2-11-6C134 76 50-80 50-295" id="at"/><path fill="#4c535d" d="M74-9v-639c0-5 1-7 7-8 29-1 97-3 189-3 235 0 353 133 353 319C623-96 437 2 268 2 205 2 113 2 81 0c-4 0-7-3-7-9zm121-543v448c182 18 304-56 304-233 0-172-129-234-304-215" id="au"/><path fill="#4c535d" d="M295 0H180c-6 0-8-3-10-6C137-102 40-386 5-486c-1-4 0-7 6-7h114c5 0 7 1 9 6 74 235 96 332 110 374 11-44 41-139 117-374 1-5 4-6 8-6h101c3 0 7 2 5 8C437-380 340-100 306-7c-2 5-5 7-11 7" id="av"/><g id="e"><use transform="matrix(0.022222222222222223,0,0,0.022222222222222223,0,0)" xlink:href="#at"/><use transform="matrix(0.022222222222222223,0,0,0.022222222222222223,7.666666666666667,0)" xlink:href="#au"/><use transform="matrix(0.022222222222222223,0,0,0.022222222222222223,22.400000000000002,0)" xlink:href="#ae"/><use transform="matrix(0.022222222222222223,0,0,0.022222222222222223,33.62222222222223,0)" xlink:href="#av"/></g><g id="f"><use transform="matrix(0.022222222222222223,0,0,0.022222222222222223,0,0)" xlink:href="#ac"/><use transform="matrix(0.022222222222222223,0,0,0.022222222222222223,12.088888888888889,0)" xlink:href="#ai"/></g><path fill="#4c535d" d="M307-294c0 217-86 371-156 454-4 4-5 6-11 6H39c-6 0-8-4-4-9C141 21 198-119 198-294S141-610 35-746c-4-5-2-9 4-9h101c6 0 7 2 11 5 73 85 156 239 156 456" id="aw"/><g id="g"><use transform="matrix(0.022222222222222223,0,0,0.022222222222222223,0,0)" xlink:href="#am"/><use transform="matrix(0.022222222222222223,0,0,0.022222222222222223,12.355555555555554,0)" xlink:href="#ai"/><use transform="matrix(0.022222222222222223,0,0,0.022222222222222223,20.31111111111111,0)" xlink:href="#ac"/><use transform="matrix(0.022222222222222223,0,0,0.022222222222222223,32.53333333333333,0)" xlink:href="#ab"/><use transform="matrix(0.022222222222222223,0,0,0.022222222222222223,44.46666666666667,0)" xlink:href="#aw"/></g><path fill="#fff" d="M74-8v-639c0-5 1-8 6-9 36-1 127-3 194-3 209 0 241 110 241 174 0 71-38 112-63 130 37 19 96 63 96 155C548-74 439 2 274 2 187 2 119 1 81 0c-5-1-7-4-7-8zm350-189c0-63-61-94-140-94h-91v190c22 1 47 2 77 2 94 1 154-31 154-98zM193-555v160c50 0 133-1 167 6 21-17 38-40 38-79 0-59-44-88-126-88-32 0-58 1-79 1" id="ax"/><path fill="#fff" d="M316-97v-123c-15-2-32-3-55-3-79 0-114 26-114 69 0 37 26 69 98 69 26 0 49-3 71-12zm117-208c0 89 1 187 0 270-82 35-140 45-208 45C116 10 29-41 29-154c0-125 138-172 287-157 1-38-7-87-101-87-50 0-94 10-131 28-3 1-8 0-8-6v-87c0-5 1-7 6-10 43-20 98-30 152-30 139 0 199 87 199 198" id="ay"/><path fill="#fff" d="M296-88v72c0 6-1 10-6 12C184 31 74 7 74-129v-263H11c-5-1-7-3-7-9v-84c0-6 2-8 8-8h63c1-35 5-98 10-123 1-5 3-8 8-9l101-14c5-1 7 0 7 5-3 33-5 92-5 141h97c5 0 7 2 7 7v87c0 5-2 7-7 7h-98v237c-6 61 41 73 95 61 3-1 6 0 6 6" id="az"/><path fill="#fff" d="M406-103v89c0 5-1 7-5 8-32 13-72 16-111 16C128 10 32-101 32-245c0-179 172-297 369-247 4 2 5 5 5 11l-1 89c0 7-4 7-8 6-21-8-47-13-86-13-91 0-155 54-155 150 0 144 127 169 243 141 5-2 7 1 7 5" id="aA"/><path fill="#fff" d="M184-363V-7c0 5-1 7-7 7H71c-6 0-8-3-8-8v-697c0-4 2-7 8-7h106c6 0 7 2 7 7v248c38-28 80-46 137-46 76 0 167 38 167 198V-9c0 7-3 9-8 9H376c-6 0-9-3-9-9v-284c0-67-29-105-87-105-37 0-70 12-96 35" id="aB"/><g id="h"><use transform="matrix(0.017777777777777778,0,0,0.017777777777777778,0,0)" xlink:href="#ax"/><use transform="matrix(0.017777777777777778,0,0,0.017777777777777778,10.542222222222222,0)" xlink:href="#ay"/><use transform="matrix(0.017777777777777778,0,0,0.017777777777777778,19.36,0)" xlink:href="#az"/><use transform="matrix(0.017777777777777778,0,0,0.017777777777777778,24.96,0)" xlink:href="#aA"/><use transform="matrix(0.017777777777777778,0,0,0.017777777777777778,32.71111111111111,0)" xlink:href="#aB"/></g><path fill="#fff" d="M74-9v-639c0-5 1-7 7-8 29-1 97-3 189-3 235 0 353 133 353 319C623-96 437 2 268 2 205 2 113 2 81 0c-4 0-7-3-7-9zm121-543v448c182 18 304-56 304-233 0-172-129-234-304-215" id="aC"/><g id="i"><use transform="matrix(0.017777777777777778,0,0,0.017777777777777778,0,0)" xlink:href="#aC"/><use transform="matrix(0.017777777777777778,0,0,0.017777777777777778,11.733333333333333,0)" xlink:href="#ay"/><use transform="matrix(0.017777777777777778,0,0,0.017777777777777778,20.551111111111112,0)" xlink:href="#az"/><use transform="matrix(0.017777777777777778,0,0,0.017777777777777778,26.275555555555556,0)" xlink:href="#ay"/></g><path fill="#fff" d="M524-110v89c0 6-2 11-7 13C273 55 35-47 36-327c0-201 140-340 358-340 65 0 105 6 130 17 4 2 6 5 6 11v95c0 8-4 8-8 6-32-15-78-22-130-22-141 0-231 90-231 230 0 173 128 232 233 232 49 0 86-4 123-17 4-2 7-1 7 5" id="aD"/><path fill="#fff" d="M275-503c154 0 238 117 238 254 0 155-99 259-240 259C106 10 32-119 32-246c0-142 93-257 243-257zm-6 101c-67 0-115 59-115 154 0 92 45 156 121 156 62 0 115-51 115-154 0-83-36-156-121-156" id="aE"/><path fill="#fff" d="M219-89c8 3 23-7 23 5v75c0 7-1 8-6 11C147 21 63 12 63-119v-585c0-5 3-8 9-8h103c6 0 9 3 9 8v574c0 31 11 41 35 41" id="aF"/><path fill="#fff" d="M460-223c-76 7-216 3-306 4 3 70 49 126 151 126 45 0 86-8 124-24 3-2 6-1 6 4v83c0 6-2 9-6 11-38 18-82 29-150 29C97 10 32-118 32-241c0-139 84-262 235-262 172 0 221 136 201 273-1 4-3 6-8 7zm-306-82c60 0 150 1 204-1 1-38-17-101-96-101-69 0-100 53-108 102" id="aG"/><path fill="#fff" d="M63-9v-477c0-5 3-7 8-7h106c6 0 8 1 8 7V-8c0 6-2 8-9 8H73c-7 0-10-3-10-9zm61-551c-41 0-68-28-68-69s29-69 69-69c43 0 68 29 68 69 0 41-27 69-69 69" id="aH"/><path fill="#fff" d="M157-493c20 2 13 24 19 45 43-36 91-55 145-55 75 0 167 38 167 198V-9c0 7-3 9-8 9H376c-6 0-9-3-9-9v-285c0-66-28-104-86-104-40 0-73 15-97 41V-8c0 5-3 8-8 8H71c-6 0-8-3-8-8-2-157 4-328-4-478 0-5 1-7 7-7h91" id="aI"/><g id="j"><use transform="matrix(0.017777777777777778,0,0,0.017777777777777778,0,0)" xlink:href="#aD"/><use transform="matrix(0.017777777777777778,0,0,0.017777777777777778,9.795555555555556,0)" xlink:href="#aE"/><use transform="matrix(0.017777777777777778,0,0,0.017777777777777778,19.466666666666665,0)" xlink:href="#aF"/><use transform="matrix(0.017777777777777778,0,0,0.017777777777777778,24.17777777777778,0)" xlink:href="#aF"/><use transform="matrix(0.017777777777777778,0,0,0.017777777777777778,28.888888888888893,0)" xlink:href="#aG"/><use transform="matrix(0.017777777777777778,0,0,0.017777777777777778,37.93777777777779,0)" xlink:href="#aA"/><use transform="matrix(0.017777777777777778,0,0,0.017777777777777778,46.08,0)" xlink:href="#az"/><use transform="matrix(0.017777777777777778,0,0,0.017777777777777778,51.78666666666667,0)" xlink:href="#aH"/><use transform="matrix(0.017777777777777778,0,0,0.017777777777777778,56.19555555555556,0)" xlink:href="#aE"/><use transform="matrix(0.017777777777777778,0,0,0.017777777777777778,65.86666666666667,0)" xlink:href="#aI"/></g><path fill="#4c535d" d="M162-329c0 129 66 232 189 232 113 0 181-93 181-232-1-140-70-231-186-231-107 0-184 83-184 231zm519 461H526c-7 0-13-4-16-6-29-25-77-68-130-118C165 26 39-124 38-329c0-192 125-338 309-338 196 0 308 150 309 335 1 137-55 243-146 298C557 9 640 86 683 124c3 3 2 8-2 8" id="aJ"/><path fill="#4c535d" d="M387 0c-18-1-12-28-17-41-43 40-94 51-139 51-95 0-168-51-168-191v-305c0-6 2-7 8-7h105c6 0 7 2 7 7v291c0 62 27 100 87 100 38 0 66-13 91-36v-355c0-5 2-7 8-7h105c6 0 7 2 7 7 2 154-6 336 6 479 1 5-2 7-8 7h-92" id="aK"/><path fill="#4c535d" d="M7-493h117c4 0 7 1 9 6 65 187 99 295 112 344 33-101 68-204 113-344 2-4 5-6 11-6h103c6 0 7 3 6 8C406-264 297 6 216 191c-2 4-5 7-13 7l-109 8c-6 0-7-2-5-8 30-60 62-131 94-207 2-6 3-9 1-16C157-91 61-329 1-486c-2-4 1-7 6-7" id="aL"/><g id="k"><use transform="matrix(0.013333333333333329,0,0,0.013333333333333329,0,0)" xlink:href="#aJ"/><use transform="matrix(0.013333333333333329,0,0,0.013333333333333329,9.186666666666664,0)" xlink:href="#aK"/><use transform="matrix(0.013333333333333329,0,0,0.013333333333333329,16.453333333333326,0)" xlink:href="#ae"/><use transform="matrix(0.013333333333333329,0,0,0.013333333333333329,23.146666666666658,0)" xlink:href="#ai"/><use transform="matrix(0.013333333333333329,0,0,0.013333333333333329,28.42666666666666,0)" xlink:href="#aL"/></g><g id="l"><use transform="matrix(0.013333333333333329,0,0,0.013333333333333329,0,0)" xlink:href="#as"/><use transform="matrix(0.013333333333333329,0,0,0.013333333333333329,6.693333333333332,0)" xlink:href="#ae"/><use transform="matrix(0.013333333333333329,0,0,0.013333333333333329,13.386666666666663,0)" xlink:href="#ai"/><use transform="matrix(0.013333333333333329,0,0,0.013333333333333329,18.559999999999995,0)" xlink:href="#av"/><use transform="matrix(0.013333333333333329,0,0,0.013333333333333329,25.01333333333333,0)" xlink:href="#aj"/><use transform="matrix(0.013333333333333329,0,0,0.013333333333333329,28.31999999999999,0)" xlink:href="#al"/><use transform="matrix(0.013333333333333329,0,0,0.013333333333333329,34.066666666666656,0)" xlink:href="#ae"/></g><path fill="#4c535d" d="M241-513h78c4 0 6 2 6 8v201h194c5 0 6 2 6 8v71c0 6-2 8-7 8H325v204c0 5-2 6-7 6h-77c-5 0-6-2-6-6v-204H42c-5 0-8-2-8-8v-73c0-4 3-6 7-6h194v-203c0-4 2-6 6-6" id="aM"/><use transform="matrix(0.013333333333333329,0,0,0.013333333333333329,0,0)" xlink:href="#aM" id="m"/><g id="n"><use transform="matrix(0.013333333333333329,0,0,0.013333333333333329,0,0)" xlink:href="#au"/><use transform="matrix(0.013333333333333329,0,0,0.013333333333333329,8.799999999999997,0)" xlink:href="#ao"/><use transform="matrix(0.013333333333333329,0,0,0.013333333333333329,15.413333333333329,0)" xlink:href="#ap"/><use transform="matrix(0.013333333333333329,0,0,0.013333333333333329,19.70666666666666,0)" xlink:href="#ao"/></g><path fill="#4c535d" d="M338-377c-39-29-195-50-196 14 0 22 15 38 79 62 114 43 153 87 153 158 0 94-74 153-197 153C118 10 66-1 36-18c-5-3-7-5-7-11v-95c0-5 4-7 8-5 43 28 98 40 143 40 52 0 77-18 77-44 0-25-19-42-81-66C67-240 28-284 28-356c0-76 62-147 187-147 58 0 102 8 126 20 5 3 6 7 6 12v88c0 5-3 8-9 6" id="aN"/><g id="o"><use transform="matrix(0.013333333333333329,0,0,0.013333333333333329,0,0)" xlink:href="#au"/><use transform="matrix(0.013333333333333329,0,0,0.013333333333333329,8.799999999999997,0)" xlink:href="#aj"/><use transform="matrix(0.013333333333333329,0,0,0.013333333333333329,12.25333333333333,0)" xlink:href="#aN"/><use transform="matrix(0.013333333333333329,0,0,0.013333333333333329,17.70666666666666,0)" xlink:href="#ap"/><use transform="matrix(0.013333333333333329,0,0,0.013333333333333329,21.986666666666657,0)" xlink:href="#aj"/><use transform="matrix(0.013333333333333329,0,0,0.013333333333333329,25.293333333333322,0)" xlink:href="#an"/><use transform="matrix(0.013333333333333329,0,0,0.013333333333333329,28.82666666666665,0)" xlink:href="#an"/><use transform="matrix(0.013333333333333329,0,0,0.013333333333333329,32.359999999999985,0)" xlink:href="#ae"/><use transform="matrix(0.013333333333333329,0,0,0.013333333333333329,39.05333333333331,0)" xlink:href="#ai"/></g><g id="p"><use transform="matrix(0.013333333333333329,0,0,0.013333333333333329,0,0)" xlink:href="#am"/><use transform="matrix(0.013333333333333329,0,0,0.013333333333333329,7.413333333333331,0)" xlink:href="#ai"/><use transform="matrix(0.013333333333333329,0,0,0.013333333333333329,12.17333333333333,0)" xlink:href="#aj"/><use transform="matrix(0.013333333333333329,0,0,0.013333333333333329,15.519999999999994,0)" xlink:href="#av"/><use transform="matrix(0.013333333333333329,0,0,0.013333333333333329,21.773333333333326,0)" xlink:href="#ao"/><use transform="matrix(0.013333333333333329,0,0,0.013333333333333329,28.386666666666656,0)" xlink:href="#al"/><use transform="matrix(0.013333333333333329,0,0,0.013333333333333329,34.49333333333332,0)" xlink:href="#aL"/></g><use transform="matrix(0.013333333333333329,0,0,0.013333333333333329,0,0)" xlink:href="#aM" id="q"/><path fill="#4c535d" d="M469-260l-112-3c-7-1-8-3-8-9v-89c0-5 3-6 7-6h226c7 0 8 2 8 8v326c1 5-1 8-6 9-70 27-139 34-197 34C153 10 36-139 36-324c0-208 148-343 369-343 67 0 126 7 162 24 4 2 6 6 6 12v96c0 6-4 7-8 5-45-23-97-29-156-29-161-2-248 86-248 231 0 155 130 266 308 223v-155" id="aO"/><g id="r"><use transform="matrix(0.013333333333333329,0,0,0.013333333333333329,0,0)" xlink:href="#aO"/><use transform="matrix(0.013333333333333329,0,0,0.013333333333333329,8.719999999999997,0)" xlink:href="#ac"/><use transform="matrix(0.013333333333333329,0,0,0.013333333333333329,15.973333333333327,0)" xlink:href="#av"/><use transform="matrix(0.013333333333333329,0,0,0.013333333333333329,22.413333333333327,0)" xlink:href="#ae"/><use transform="matrix(0.013333333333333329,0,0,0.013333333333333329,29.10666666666666,0)" xlink:href="#ai"/><use transform="matrix(0.013333333333333329,0,0,0.013333333333333329,33.83999999999999,0)" xlink:href="#ak"/><use transform="matrix(0.013333333333333329,0,0,0.013333333333333329,41.18666666666665,0)" xlink:href="#ao"/><use transform="matrix(0.013333333333333329,0,0,0.013333333333333329,47.79999999999998,0)" xlink:href="#ak"/><use transform="matrix(0.013333333333333329,0,0,0.013333333333333329,55.14666666666665,0)" xlink:href="#al"/><use transform="matrix(0.013333333333333329,0,0,0.013333333333333329,60.89333333333332,0)" xlink:href="#ae"/></g><path fill="#fff" d="M505-101L490-8c-1 7-3 8-9 8H83c-7 0-9-3-9-8v-641c0-5 2-8 8-8h386c6 0 8 1 9 7l11 93c1 5-1 9-7 9H195v159h260c5 0 7 1 7 7v95c0 5-3 6-7 6H195v172h303c6 0 8 3 7 8" id="aP"/><path fill="#fff" d="M147-245L-3-484c-3-4-2-9 5-9h120c7 0 9 1 12 7 33 57 62 118 97 173l100-175c3-5 4-5 9-5h106c6 0 8 3 5 8-35 56-112 179-151 234C343-184 425-58 461-8c3 5 2 8-5 8H333c-6 0-10-3-13-8-34-58-66-117-101-174L116-6c-2 4-4 6-11 6H-2c-5 0-8-5-5-9 42-63 111-173 154-236" id="aQ"/><path fill="#fff" d="M266-503c165 0 247 112 247 240C513-70 354 21 184 8v180c0 4-1 7-7 8-35 4-102 10-107 10-6 0-7-1-7-6-2-219 4-444-3-658 0-1 0-4 4-5 45-15 115-40 202-40zm123 248c6-119-94-169-205-135v295c105 15 199-28 205-160" id="aR"/><path fill="#fff" d="M64-493h94c6 0 9 2 11 8 5 13 9 38 10 60 34-42 91-78 160-78 6 0 8 1 8 7v106c0 5-2 7-9 7-71-2-130 23-153 53V-8c0 6-3 8-9 8H72c-7 0-9-3-9-8-2-158 5-329-5-479 0-5 1-6 6-6" id="aS"/><g id="s"><use transform="matrix(0.017777777777777778,0,0,0.017777777777777778,0,0)" xlink:href="#aP"/><use transform="matrix(0.017777777777777778,0,0,0.017777777777777778,9.937777777777777,0)" xlink:href="#aQ"/><use transform="matrix(0.017777777777777778,0,0,0.017777777777777778,18.115555555555556,0)" xlink:href="#aR"/><use transform="matrix(0.017777777777777778,0,0,0.017777777777777778,27.91111111111111,0)" xlink:href="#aG"/><use transform="matrix(0.017777777777777778,0,0,0.017777777777777778,36.83555555555556,0)" xlink:href="#aS"/><use transform="matrix(0.017777777777777778,0,0,0.017777777777777778,43.18222222222222,0)" xlink:href="#aH"/><use transform="matrix(0.017777777777777778,0,0,0.017777777777777778,47.59111111111111,0)" xlink:href="#aG"/><use transform="matrix(0.017777777777777778,0,0,0.017777777777777778,56.51555555555556,0)" xlink:href="#aI"/><use transform="matrix(0.017777777777777778,0,0,0.017777777777777778,66.31111111111112,0)" xlink:href="#aA"/><use transform="matrix(0.017777777777777778,0,0,0.017777777777777778,73.97333333333334,0)" xlink:href="#aG"/></g><path fill="#fff" d="M470 0H84c-8 0-10-3-10-10v-638c0-5 2-9 8-9h107c4 0 6 3 6 7v541h294c6 0 8 3 7 7L479-8c-1 7-4 8-9 8" id="aT"/><path fill="#fff" d="M377-493h113c7 0 9 4 5 9-30 35-160 172-198 212-1 1 0 2 0 4C358-198 457-83 523-9c3 4 1 9-5 9H381c-7 0-9-2-13-7-37-42-135-162-184-221V-9c0 7-2 9-8 9H71c-7 0-9-2-9-9v-695c0-5 2-8 9-8h105c5 0 8 2 8 8v423c53-59 158-180 181-206 4-5 7-6 12-6" id="aU"/><g id="t"><use transform="matrix(0.017777777777777778,0,0,0.017777777777777778,0,0)" xlink:href="#aT"/><use transform="matrix(0.017777777777777778,0,0,0.017777777777777778,9.28,0)" xlink:href="#ay"/><use transform="matrix(0.017777777777777778,0,0,0.017777777777777778,18.09777777777778,0)" xlink:href="#aU"/><use transform="matrix(0.017777777777777778,0,0,0.017777777777777778,26.968888888888895,0)" xlink:href="#aG"/></g><path fill="#fff" d="M50-295c0-215 86-372 156-455 3-3 5-5 11-5h101c5 0 8 4 4 9-106 136-163 276-163 450 0 176 57 317 163 453 4 5 1 9-4 9H217c-6 0-8-2-11-6C134 76 50-80 50-295" id="aV"/><path fill="#fff" d="M185 0H82c-6 0-8-2-8-8v-639c0-5 1-9 7-9 79-2 121-3 198-3 160 0 254 69 254 197 0 87-56 149-129 176 33 46 153 225 182 275 3 6 4 11-2 11H459c-8 0-11-2-14-5-29-45-102-158-143-230-17-30-71-11-109-17V-8c0 6-3 8-8 8zm8-355c109 8 220-5 220-100 0-66-53-99-138-99-34 0-66 1-82 2v197" id="aW"/><path fill="#fff" d="M575 0H465c-7 0-9-3-11-9-59-223-74-313-86-361-23 100-48 196-95 362-2 6-5 8-11 8H153c-10 0-11-2-13-8L10-485c-2-5 1-8 7-8h110c5 0 7 1 8 6 60 235 75 330 82 370h2c8-35 25-126 91-368 1-6 2-8 9-8h115c5 0 7 2 8 6 62 244 76 333 84 373h2c12-60 27-160 85-373 1-4 4-6 9-6h101c4 0 8 2 6 7L586-8c-3 6-4 8-11 8" id="aX"/><g id="u"><use transform="matrix(0.017777777777777778,0,0,0.017777777777777778,0,0)" xlink:href="#aV"/><use transform="matrix(0.017777777777777778,0,0,0.017777777777777778,6.133333333333334,0)" xlink:href="#aW"/><use transform="matrix(0.017777777777777778,0,0,0.017777777777777778,16.817777777777778,0)" xlink:href="#ay"/><use transform="matrix(0.017777777777777778,0,0,0.017777777777777778,25.635555555555555,0)" xlink:href="#aX"/></g><path fill="#fff" d="M74-7v-641c0-5 2-8 7-8 38-1 112-3 185-3 194 0 266 108 266 218 0 181-150 240-337 228V-8c0 5-2 8-8 8H82c-5 0-8-2-8-7zm121-545v232c108 7 218-4 218-118 0-73-52-116-144-116-35 0-63 1-74 2" id="aY"/><path fill="#fff" d="M243-721c24 0 55-3 55 16v86c-2 12-27-2-38 2-51-8-72 50-66 124h88c7 0 8 2 8 6v88c0 5-2 7-8 7h-88V-8c0 5-1 8-9 8H81c-6 0-8-3-8-8v-384H12c-5 0-6-2-6-7v-88c0-5 2-6 6-6h61c-4-138 43-228 170-228" id="aZ"/><g id="v"><use transform="matrix(0.017777777777777778,0,0,0.017777777777777778,0,0)" xlink:href="#aY"/><use transform="matrix(0.017777777777777778,0,0,0.017777777777777778,9.884444444444444,0)" xlink:href="#aS"/><use transform="matrix(0.017777777777777778,0,0,0.017777777777777778,16.24888888888889,0)" xlink:href="#aE"/><use transform="matrix(0.017777777777777778,0,0,0.017777777777777778,25.973333333333336,0)" xlink:href="#aZ"/><use transform="matrix(0.017777777777777778,0,0,0.017777777777777778,31.253333333333334,0)" xlink:href="#aH"/><use transform="matrix(0.017777777777777778,0,0,0.017777777777777778,35.662222222222226,0)" xlink:href="#aF"/><use transform="matrix(0.017777777777777778,0,0,0.017777777777777778,40.373333333333335,0)" xlink:href="#aG"/></g><path fill="#fff" d="M307-294c0 217-86 371-156 454-4 4-5 6-11 6H39c-6 0-8-4-4-9C141 21 198-119 198-294S141-610 35-746c-4-5-2-9 4-9h101c6 0 7 2 11 5 73 85 156 239 156 456" id="ba"/><g id="w"><use transform="matrix(0.017777777777777778,0,0,0.017777777777777778,0,0)" xlink:href="#aC"/><use transform="matrix(0.017777777777777778,0,0,0.017777777777777778,11.733333333333333,0)" xlink:href="#ay"/><use transform="matrix(0.017777777777777778,0,0,0.017777777777777778,20.551111111111112,0)" xlink:href="#az"/><use transform="matrix(0.017777777777777778,0,0,0.017777777777777778,26.275555555555556,0)" xlink:href="#ay"/><use transform="matrix(0.017777777777777778,0,0,0.017777777777777778,35.093333333333334,0)" xlink:href="#ba"/></g><path fill="#282c33" d="M163-655V-7c0 5-1 7-6 7H87c-5 0-7-2-7-7v-647c0-5 2-7 6-7h71c4 0 6 2 6 6" id="bb"/><path fill="#282c33" d="M451-27C262 61 35-3 35-239c0-166 143-285 335-251v-221c0-5 2-6 6-6h72c5 0 6 2 6 5 1 225-3 456 2 678 0 4-1 5-5 7zm-81-49v-338c-134-40-254 46-250 171C125-80 243-39 370-76" id="bc"/><path fill="#282c33" d="M440-237c-86 8-224 2-321 4-1 95 54 170 167 170 44 0 86-8 125-27 3-2 5 0 5 4-2 21 5 54-5 67-34 17-78 29-141 29C97 10 35-117 35-239c0-140 82-257 221-257 163 0 209 131 191 253 0 3-3 6-7 6zm-134-58c58-5 64 10 65-13 0-36-24-119-118-119-83 0-124 65-133 132h186" id="bd"/><path fill="#282c33" d="M134-486c18 5 10 28 15 56 44-44 95-66 153-66 71 0 163 35 163 193V-7c0 5-2 7-7 7h-70c-5 0-7-2-7-8v-287c0-76-33-127-103-127-51 0-93 23-125 61V-7c0 5-1 7-6 7H76c-4 0-6-2-6-7-2-155 4-326-4-473 0-4 1-6 6-6h62" id="be"/><path fill="#282c33" d="M279-65c-3 20 7 50-6 61C177 29 81 9 81-121v-293H13c-6-1-7-3-7-8v-57c0-5 2-7 7-7h68c1-37 5-106 9-128 1-4 3-6 7-7l68-11c4-1 6 0 6 4-3 35-6 93-6 142h106c4 0 6 2 6 7v59c0 4-2 6-6 6H165v281c-7 67 51 85 108 64 3-1 6-1 6 4" id="bf"/><path fill="#282c33" d="M70-8v-471c0-5 2-7 7-7h71c4 0 6 1 6 6V-7c0 5-1 7-7 7H78c-5 0-8-2-8-8zm42-574c-31 0-50-21-50-51s21-51 51-51c32 0 50 22 50 51 0 30-20 51-51 51" id="bg"/><path fill="#282c33" d="M11-486h79c4 0 6 2 7 5 83 220 124 334 138 379 32-92 74-207 135-379 2-3 4-5 8-5h71c5 0 6 3 4 7C379-262 276-6 181 208c-18 15-59 7-86 13-5 0-5-3-3-8 29-61 66-142 99-221 2-4 2-7 0-13C167-81 67-324 6-480c-2-4 1-6 5-6" id="bh"/><g id="x"><use transform="matrix(0.017777777777777774,0,0,0.017777777777777774,0,0)" xlink:href="#bb"/><use transform="matrix(0.017777777777777774,0,0,0.017777777777777774,4.266666666666667,0)" xlink:href="#bc"/><use transform="matrix(0.017777777777777774,0,0,0.017777777777777774,13.58222222222222,0)" xlink:href="#bd"/><use transform="matrix(0.017777777777777774,0,0,0.017777777777777774,22.151111111111106,0)" xlink:href="#be"/><use transform="matrix(0.017777777777777774,0,0,0.017777777777777774,31.662222222222216,0)" xlink:href="#bf"/><use transform="matrix(0.017777777777777774,0,0,0.017777777777777774,36.99555555555555,0)" xlink:href="#bg"/><use transform="matrix(0.017777777777777774,0,0,0.017777777777777774,41.13777777777777,0)" xlink:href="#bf"/><use transform="matrix(0.017777777777777774,0,0,0.017777777777777774,46.755555555555546,0)" xlink:href="#bh"/></g><path fill="#282c33" d="M494-279l-139-2c-5-1-7-2-7-7v-61c0-4 3-5 6-5h217c6 0 7 2 7 6v317c1 4-1 6-5 8-65 26-131 33-186 33C160 10 40-137 40-327c0-210 147-344 360-344 68 0 123 8 159 25 11 16 2 52 5 76 0 5-3 6-6 4-45-23-100-29-156-29-170-2-276 99-276 265 0 147 91 266 265 266 45 0 77-5 103-16v-199" id="bi"/><path fill="#282c33" d="M70-486h64c6 0 7 2 9 7 4 12 7 47 8 69 35-48 97-86 161-86 5 0 7 1 7 7v72c0 5-1 6-7 6-69-1-132 33-157 73L154-6c0 5-2 6-6 6H77c-5 0-7-2-7-7-2-155 5-327-5-473 0-4 1-6 5-6" id="bj"/><path fill="#282c33" d="M323-75v-157c-14-2-36-4-66-4-97 0-144 33-144 89 0 45 31 89 119 89 32 0 62-5 91-17zm81-233c0 91 1 191 0 275C258 41 36 32 31-147c-4-128 147-165 292-151 2-57-3-124-113-124-48 0-92 11-127 30-3 1-7 0-7-5 3-22-6-55 5-69 39-19 89-30 142-30 128 0 181 84 181 188" id="bk"/><path fill="#282c33" d="M256-496c148 0 234 102 234 236C490-61 327 28 153 6v200c0 4 0 6-5 7-23 2-69 7-73 8-4 0-5-1-5-6v-671c35-13 101-40 186-40zm-10 73c-35 0-65 6-93 16v339c131 25 252-33 252-187 0-102-58-168-159-168" id="bl"/><path fill="#282c33" d="M153-367V-6c0 5-1 6-6 6H77c-5 0-7-2-7-7v-704c0-4 1-6 6-6h72c4 0 5 1 5 5l1 274c41-38 89-58 148-58 71 0 163 35 163 193V-7c0 5-2 7-7 7h-70c-5 0-7-2-7-8v-286c0-77-33-128-103-128-49 0-93 20-125 55" id="bm"/><g id="y"><use transform="matrix(0.017777777777777774,0,0,0.017777777777777774,0,0)" xlink:href="#bi"/><use transform="matrix(0.017777777777777774,0,0,0.017777777777777774,11.413333333333334,0)" xlink:href="#bj"/><use transform="matrix(0.017777777777777774,0,0,0.017777777777777774,17.066666666666663,0)" xlink:href="#bk"/><use transform="matrix(0.017777777777777774,0,0,0.017777777777777774,25.49333333333333,0)" xlink:href="#bl"/><use transform="matrix(0.017777777777777774,0,0,0.017777777777777774,34.82666666666666,0)" xlink:href="#bm"/></g><path fill="#fff" d="M156 0H86c-4 0-6-1-6-6v-646c0-5 1-8 6-8 56-2 107-3 174-3 147 0 245 63 245 191 0 94-64 152-138 177C401-248 535-51 561-8c2 4 2 8-3 8-31-2-71 5-95-4-31-47-114-175-164-252-8-12-13-16-23-16H162V-6c0 4-2 6-6 6zm6-345h107c95 0 153-49 153-123 0-76-58-121-165-121-38 0-75 1-95 2v242" id="bn"/><path fill="#fff" d="M440-237c-86 8-224 2-321 4-1 95 54 170 167 170 44 0 86-8 125-27 3-2 5 0 5 4-2 21 5 54-5 67-34 17-78 29-141 29C97 10 35-117 35-239c0-140 82-257 221-257 163 0 209 131 191 253 0 3-3 6-7 6zm-134-58c58-5 64 10 65-13 0-36-24-119-118-119-83 0-124 65-133 132h186" id="bo"/><path fill="#fff" d="M323-75v-157c-14-2-36-4-66-4-97 0-144 33-144 89 0 45 31 89 119 89 32 0 62-5 91-17zm81-233c0 91 1 191 0 275C258 41 36 32 31-147c-4-128 147-165 292-151 2-57-3-124-113-124-48 0-92 11-127 30-3 1-7 0-7-5 3-22-6-55 5-69 39-19 89-30 142-30 128 0 181 84 181 188" id="bp"/><path fill="#fff" d="M217-5c-5 16-25 15-51 15-49 0-96-17-96-111v-610c0-5 2-6 7-6h70c5 0 6 2 6 6v603c0 48 26 52 60 45 3 0 4 2 4 6v52" id="bq"/><path fill="#fff" d="M267-216H43c-4 0-5-1-5-5v-63c0-3 1-5 5-5h224c3 0 5 1 5 5v63c0 4-1 5-5 5" id="br"/><path fill="#fff" d="M279-65c-3 20 7 50-6 61C177 29 81 9 81-121v-293H13c-6-1-7-3-7-8v-57c0-5 2-7 7-7h68c1-37 5-106 9-128 1-4 3-6 7-7l68-11c4-1 6 0 6 4-3 35-6 93-6 142h106c4 0 6 2 6 7v59c0 4-2 6-6 6H165v281c-7 67 51 85 108 64 3-1 6-1 6 4" id="bs"/><path fill="#fff" d="M70-8v-471c0-5 2-7 7-7h71c4 0 6 1 6 6V-7c0 5-1 7-7 7H78c-5 0-8-2-8-8zm42-574c-31 0-50-21-50-51s21-51 51-51c32 0 50 22 50 51 0 30-20 51-51 51" id="bt"/><path fill="#fff" d="M135-486c16 4 10 33 14 53 78-81 227-91 283 10 42-41 94-73 167-73 74 0 162 39 162 191V-6c0 4-2 6-7 6h-69c-5 0-7-2-7-7v-292c0-68-31-123-102-123-50 0-91 22-123 58 11 108 2 241 5 357 0 5-2 7-7 7h-70c-5 0-7-2-7-7v-295c0-76-35-120-100-120-47 0-83 18-121 56V-6c0 4-1 6-6 6H76c-5 0-6-2-6-7-2-154 4-327-4-473 0-4 1-6 6-6h63" id="bu"/><g id="z"><use transform="matrix(0.017777777777777774,0,0,0.017777777777777774,0,0)" xlink:href="#bn"/><use transform="matrix(0.017777777777777774,0,0,0.017777777777777774,9.937777777777779,0)" xlink:href="#bo"/><use transform="matrix(0.017777777777777774,0,0,0.017777777777777774,18.559999999999995,0)" xlink:href="#bp"/><use transform="matrix(0.017777777777777774,0,0,0.017777777777777774,26.98666666666666,0)" xlink:href="#bq"/><use transform="matrix(0.017777777777777774,0,0,0.017777777777777774,31.271111111111104,0)" xlink:href="#br"/><use transform="matrix(0.017777777777777774,0,0,0.017777777777777774,36.78222222222222,0)" xlink:href="#bs"/><use transform="matrix(0.017777777777777774,0,0,0.017777777777777774,42.115555555555545,0)" xlink:href="#bt"/><use transform="matrix(0.017777777777777774,0,0,0.017777777777777774,46.115555555555545,0)" xlink:href="#bu"/><use transform="matrix(0.017777777777777774,0,0,0.017777777777777774,60.90666666666665,0)" xlink:href="#bo"/></g><path fill="#fff" d="M518-80c-3 23 6 56-5 71-33 14-79 19-135 19C211 10 40-87 40-332c0-200 138-339 351-339 67 0 106 7 128 18 3 1 5 4 5 8v67c0 6-4 6-7 5-28-15-73-23-128-23-157 0-264 102-264 262 0 209 157 268 262 268 51 0 88-4 125-18 4-1 6-1 6 4" id="bv"/><path fill="#fff" d="M393 0c-16-3-10-32-14-48-42 43-95 58-145 58-85 0-165-43-165-188v-302c0-5 2-6 7-6h71c4 0 5 2 5 6v292c0 77 36 124 106 124 48 0 86-18 116-51v-365c0-4 2-6 7-6h70c6 0 6 2 6 6 3 153-6 333 6 474 0 4-1 6-6 6h-64" id="bw"/><path fill="#fff" d="M317-398c-28-17-74-29-116-29-66 0-88 32-88 62s18 51 93 81c101 39 142 80 142 151 0 92-75 143-179 143C114 10 64-2 35-19c-11-16-2-52-5-76 0-5 3-7 6-5 59 51 230 63 230-25 0-37-22-59-91-86C75-249 33-290 33-361c0-72 61-135 170-135 55 0 96 10 117 22 11 15 2 48 5 71 0 5-3 8-8 5" id="bx"/><path fill="#fff" d="M265-496c141 0 228 108 228 252 0 152-94 254-228 254C104 10 35-120 35-243c0-141 90-253 230-253zm-4 72c-84 0-142 72-142 179 0 102 53 183 148 183 71 0 141-56 141-180 0-93-43-182-147-182" id="by"/><path fill="#fff" d="M70-486h64c6 0 7 2 9 7 4 12 7 47 8 69 35-48 97-86 161-86 5 0 7 1 7 7v72c0 5-1 6-7 6-69-1-132 33-157 73L154-6c0 5-2 6-6 6H77c-5 0-7-2-7-7-2-155 5-327-5-473 0-4 1-6 5-6" id="bz"/><g id="A"><use transform="matrix(0.017777777777777774,0,0,0.017777777777777774,0,0)" xlink:href="#bv"/><use transform="matrix(0.017777777777777774,0,0,0.017777777777777774,9.439999999999998,0)" xlink:href="#bw"/><use transform="matrix(0.017777777777777774,0,0,0.017777777777777774,19.039999999999996,0)" xlink:href="#bx"/><use transform="matrix(0.017777777777777774,0,0,0.017777777777777774,25.902222222222218,0)" xlink:href="#bs"/><use transform="matrix(0.017777777777777774,0,0,0.017777777777777774,31.11111111111111,0)" xlink:href="#by"/><use transform="matrix(0.017777777777777774,0,0,0.017777777777777774,40.48,0)" xlink:href="#bu"/><use transform="matrix(0.017777777777777774,0,0,0.017777777777777774,55.271111111111104,0)" xlink:href="#bo"/><use transform="matrix(0.017777777777777774,0,0,0.017777777777777774,63.83999999999999,0)" xlink:href="#bz"/></g><path fill="#fff" d="M80-6v-647c0-4 1-7 5-7 32-1 98-3 165-3 177 0 255 100 255 212-1 179-157 238-342 222V-7c0 5-1 7-6 7H86c-4 0-6-2-6-6zm83-581v283c129 9 259-8 259-145 0-91-70-140-171-140-41 0-72 1-88 2" id="bA"/><path fill="#fff" d="M79-486c-13-159 53-266 200-234 5 1 5 4 5 8v59c0 4-2 6-6 5-74-15-114 3-116 117v45h96c4 0 6 2 6 5v60c0 5-2 6-6 7h-96V-7c0 4-1 7-6 7H85c-4 0-6-2-6-7v-407H14c-4 0-6-2-6-7v-59c0-4 2-6 6-6h65" id="bB"/><g id="B"><use transform="matrix(0.017777777777777774,0,0,0.017777777777777774,0,0)" xlink:href="#bA"/><use transform="matrix(0.017777777777777774,0,0,0.017777777777777774,9.42222222222222,0)" xlink:href="#bz"/><use transform="matrix(0.017777777777777774,0,0,0.017777777777777774,15.217777777777775,0)" xlink:href="#by"/><use transform="matrix(0.017777777777777774,0,0,0.017777777777777774,24.586666666666662,0)" xlink:href="#bB"/><use transform="matrix(0.017777777777777774,0,0,0.017777777777777774,29.439999999999998,0)" xlink:href="#bt"/><use transform="matrix(0.017777777777777774,0,0,0.017777777777777774,33.44,0)" xlink:href="#bq"/><use transform="matrix(0.017777777777777774,0,0,0.017777777777777774,37.724444444444444,0)" xlink:href="#bo"/></g><g id="C"><use transform="matrix(0.022222222222222223,0,0,0.022222222222222223,0,0)" xlink:href="#au"/><use transform="matrix(0.022222222222222223,0,0,0.022222222222222223,14.666666666666668,0)" xlink:href="#ao"/><use transform="matrix(0.022222222222222223,0,0,0.022222222222222223,25.68888888888889,0)" xlink:href="#ap"/><use transform="matrix(0.022222222222222223,0,0,0.022222222222222223,32.84444444444445,0)" xlink:href="#ao"/></g><path fill="#4c535d" d="M470 0H84c-8 0-10-3-10-10v-638c0-5 2-9 8-9h107c4 0 6 3 6 7v541h294c6 0 8 3 7 7L479-8c-1 7-4 8-9 8" id="bC"/><path fill="#4c535d" d="M402 56C401-18 260 0 182-8c-89 63-48 141 83 141 95 0 137-39 137-77zM243-416c-50 0-81 31-81 82 0 46 28 80 81 80 50 0 80-29 80-78 0-47-24-84-80-84zm0-87c47-1 77 10 111 10h139c5 0 6 2 6 6v82c0 4-1 6-6 6-19 0-55-2-77-5 11 16 22 40 22 76 0 120-107 174-233 158-7 24-4 44 10 61l102 4c137 7 196 61 196 143 0 102-100 184-256 184C96 222 23 141 23 68c0-32 27-73 93-130-27-40-28-97-3-140-41-26-69-69-69-130 0-96 73-171 199-171" id="bD"/><g id="D"><use transform="matrix(0.022222222222222223,0,0,0.022222222222222223,0,0)" xlink:href="#bC"/><use transform="matrix(0.022222222222222223,0,0,0.022222222222222223,11.6,0)" xlink:href="#ao"/><use transform="matrix(0.022222222222222223,0,0,0.022222222222222223,22.622222222222224,0)" xlink:href="#ak"/><use transform="matrix(0.022222222222222223,0,0,0.022222222222222223,34.86666666666667,0)" xlink:href="#ab"/><use transform="matrix(0.022222222222222223,0,0,0.022222222222222223,46.86666666666666,0)" xlink:href="#aj"/><use transform="matrix(0.022222222222222223,0,0,0.022222222222222223,52.3111111111111,0)" xlink:href="#ak"/><use transform="matrix(0.022222222222222223,0,0,0.022222222222222223,64.17777777777776,0)" xlink:href="#bD"/></g><path fill="#4c535d" d="M510 0H23c-4 0-8-1-8-8 2-26-3-58 3-79l347-462H30c-5 0-8-1-7-7l15-93c1-6 4-8 9-8h465c5 0 6 2 6 6-2 28 9 67-5 86L172-109h358c5 0 7 3 5 9L519-8c-1 6-3 8-9 8" id="bE"/><g id="E"><use transform="matrix(0.022222222222222223,0,0,0.022222222222222223,0,0)" xlink:href="#bE"/><use transform="matrix(0.022222222222222223,0,0,0.022222222222222223,12.28888888888889,0)" xlink:href="#ac"/><use transform="matrix(0.022222222222222223,0,0,0.022222222222222223,24.37777777777778,0)" xlink:href="#ak"/><use transform="matrix(0.022222222222222223,0,0,0.022222222222222223,36.62222222222223,0)" xlink:href="#ae"/></g><g id="F"><use transform="matrix(0.017777777777777778,0,0,0.017777777777777778,0,0)" xlink:href="#au"/><use transform="matrix(0.017777777777777778,0,0,0.017777777777777778,11.733333333333333,0)" xlink:href="#bC"/><use transform="matrix(0.017777777777777778,0,0,0.017777777777777778,21.333333333333332,0)" xlink:href="#bE"/></g><path fill="#4c535d" d="M377-493h113c7 0 9 4 5 9-30 35-160 172-198 212-1 1 0 2 0 4C358-198 457-83 523-9c3 4 1 9-5 9H381c-7 0-9-2-13-7-37-42-135-162-184-221V-9c0 7-2 9-8 9H71c-7 0-9-2-9-9v-695c0-5 2-8 9-8h105c5 0 8 2 8 8v423c53-59 158-180 181-206 4-5 7-6 12-6" id="bF"/><g id="G"><use transform="matrix(0.017777777777777778,0,0,0.017777777777777778,0,0)" xlink:href="#au"/><use transform="matrix(0.017777777777777778,0,0,0.017777777777777778,11.733333333333333,0)" xlink:href="#ao"/><use transform="matrix(0.017777777777777778,0,0,0.017777777777777778,20.551111111111112,0)" xlink:href="#ap"/><use transform="matrix(0.017777777777777778,0,0,0.017777777777777778,26.275555555555556,0)" xlink:href="#ao"/><use transform="matrix(0.017777777777777778,0,0,0.017777777777777778,35.093333333333334,0)" xlink:href="#ad"/><use transform="matrix(0.017777777777777778,0,0,0.017777777777777778,44.782222222222224,0)" xlink:href="#ai"/><use transform="matrix(0.017777777777777778,0,0,0.017777777777777778,51.12888888888889,0)" xlink:href="#aj"/><use transform="matrix(0.017777777777777778,0,0,0.017777777777777778,55.53777777777778,0)" xlink:href="#al"/><use transform="matrix(0.017777777777777778,0,0,0.017777777777777778,63.28888888888888,0)" xlink:href="#bF"/><use transform="matrix(0.017777777777777778,0,0,0.017777777777777778,72.71111111111111,0)" xlink:href="#aN"/></g><path fill="#4c535d" d="M524-110v89c0 6-2 11-7 13C273 55 35-47 36-327c0-201 140-340 358-340 65 0 105 6 130 17 4 2 6 5 6 11v95c0 8-4 8-8 6-32-15-78-22-130-22-141 0-231 90-231 230 0 173 128 232 233 232 49 0 86-4 123-17 4-2 7-1 7 5" id="bG"/><g id="H"><use transform="matrix(0.017777777777777778,0,0,0.017777777777777778,0,0)" xlink:href="#bG"/><use transform="matrix(0.017777777777777778,0,0,0.017777777777777778,9.795555555555556,0)" xlink:href="#ac"/><use transform="matrix(0.017777777777777778,0,0,0.017777777777777778,19.466666666666665,0)" xlink:href="#ak"/><use transform="matrix(0.017777777777777778,0,0,0.017777777777777778,29.26222222222222,0)" xlink:href="#ap"/><use transform="matrix(0.017777777777777778,0,0,0.017777777777777778,34.98666666666667,0)" xlink:href="#ao"/><use transform="matrix(0.017777777777777778,0,0,0.017777777777777778,43.80444444444445,0)" xlink:href="#aj"/><use transform="matrix(0.017777777777777778,0,0,0.017777777777777778,48.16,0)" xlink:href="#ak"/><use transform="matrix(0.017777777777777778,0,0,0.017777777777777778,57.95555555555556,0)" xlink:href="#ae"/><use transform="matrix(0.017777777777777778,0,0,0.017777777777777778,66.88000000000001,0)" xlink:href="#ai"/></g><path fill="#4c535d" d="M297-755c18-11 53-2 79-5 4 0 6 4 1 7-175 174-264 366-257 594 4 109 41 236 92 322 1 3 0 7-4 7-23-2-56 5-71-5-41-64-85-191-90-322-9-259 109-466 250-598" id="bH"/><path fill="#4c535d" d="M402-214H164L56-4C38 5 4-2-21 0c-4 0-6-2-4-6l320-614c3-5 6-14 11-36 0-4 1-5 4-5h93c3 0 4 1 5 5L517-6c0 5-1 6-5 6h-67c-5 0-6-1-8-5zm-204-73h196c-30-172-43-268-48-305-13 37-99 211-148 305" id="bI"/><path fill="#4c535d" d="M314 0H-26c-3 0-5-1-4-4 4-16 5-38 13-50 97-120 261-325 294-365-53 4-168 1-233 2-4 0-6-1-5-5l17-61c2-3 3-3 6-3h320c3 0 4 1 4 5-5 17-6 39-15 53C280-305 115-105 81-67c74-3 173-2 254-2 4 0 5 2 4 6L320-5c-1 4-2 5-6 5" id="bJ"/><path fill="#4c535d" d="M465-481c-25 154-62 315-80 475 0 3-2 6-6 6h-57c-6 0-8-2-9-6-1-10 1-40 5-61C265-6 210 9 161 9 92 9 19-28 44-166l58-315c1-3 2-5 7-5h67c4 0 5 3 5 6l-58 313c-12 67 10 106 66 106 41 0 128-36 140-100l59-321c1-3 2-4 7-4h66c4 0 4 2 4 5" id="bK"/><path fill="#4c535d" d="M107-486h57c5 0 6 1 7 5 1 13-5 70-9 92 41-58 115-107 174-106 4 0 7 1 5 7l-14 73c-1 4-3 5-6 5-71 7-158 52-171 124L100-5c-1 4-1 5-6 5H27c-4 0-6-2-6-6 25-153 61-319 80-475 0-4 2-5 6-5" id="bL"/><path fill="#4c535d" d="M354-92l-10 64c-1 5-2 6-7 8-32 20-67 30-128 30C96 10 23-59 23-193c0-155 106-303 254-303 104 0 138 61 139 121 1 110-100 170-315 164-9 83 19 150 125 150 39 0 81-8 124-35 3-1 5 1 4 4zM108-273c199 8 236-50 236-97 0-22-8-61-74-61-73 0-140 64-162 158" id="bM"/><g id="I"><use transform="matrix(0.013333333333333334,0,0,0.013333333333333334,0,0)" xlink:href="#bH"/><use transform="matrix(0.013333333333333334,0,0,0.013333333333333334,4.213333333333334,0)" xlink:href="#bI"/><use transform="matrix(0.013333333333333334,0,0,0.013333333333333334,12.306666666666668,0)" xlink:href="#bJ"/><use transform="matrix(0.013333333333333334,0,0,0.013333333333333334,17.360000000000003,0)" xlink:href="#bK"/><use transform="matrix(0.013333333333333334,0,0,0.013333333333333334,24.040000000000003,0)" xlink:href="#bL"/><use transform="matrix(0.013333333333333334,0,0,0.013333333333333334,28.360000000000003,0)" xlink:href="#bM"/></g><path fill="#4c535d" d="M30-8l114-647c0-4 2-5 4-5 23-1 84-3 133-3 185 0 312 99 312 296 0 114-43 223-131 288C322 25 211 0 36 0c-4 0-6-3-6-8zm166-61c198 0 311-126 314-297 3-164-112-243-297-223L122-72c13 1 35 3 74 3" id="bN"/><path fill="#4c535d" d="M456-476L377-30c-1 4-2 6-6 8C219 47 19 12 23-191c3-153 125-305 323-305 45 0 80 6 108 15 1 1 2 2 2 5zM306-71l62-353c-150-22-265 89-265 229 0 82 43 137 135 137 27 0 49-4 68-13" id="bO"/><path fill="#4c535d" d="M224-66c-6 20-4 49-17 62C116 28 22 12 46-125l52-292H32c-4-1-5-2-4-7l12-57c1-4 2-5 6-5h65c7-40 16-88 22-122 1-3 2-4 6-4 28-2 47-6 72-15 3-1 5 1 5 4-8 38-18 89-27 137h91c5 0 7 2 6 6l-10 56c-1 5-3 6-7 7h-93l-51 291c-21 70 42 81 93 57 3-1 6-2 6 3" id="bP"/><g id="J"><use transform="matrix(0.013333333333333334,0,0,0.013333333333333334,0,0)" xlink:href="#bN"/><use transform="matrix(0.013333333333333334,0,0,0.013333333333333334,8.52,0)" xlink:href="#bO"/><use transform="matrix(0.013333333333333334,0,0,0.013333333333333334,15.106666666666664,0)" xlink:href="#bP"/><use transform="matrix(0.013333333333333334,0,0,0.013333333333333334,18.799999999999997,0)" xlink:href="#bO"/></g><path fill="#4c535d" d="M224-655L123-73h297c4 0 5 2 3 6L402-5c-2 4-2 5-6 5H36c-4 0-7-2-6-6l114-650c1-3 1-5 5-5h71c3 0 5 1 4 6" id="bQ"/><path fill="#4c535d" d="M381-481c21-11 60-2 89-5 4 0 6 4 3 7-61 56-207 190-244 226C275-191 357-75 410-7c2 4 1 7-3 7h-80c-5 0-7-1-10-5L145-244c-3-4-1-8 1-11zM224-717L101-6c-1 5-2 6-8 6H27c-4 0-6-2-5-6l123-704c1-4 3-6 6-6 18-2 62-6 69-6 4 0 5 1 4 5" id="bR"/><g id="K"><use transform="matrix(0.013333333333333334,0,0,0.013333333333333334,0,0)" xlink:href="#bQ"/><use transform="matrix(0.013333333333333334,0,0,0.013333333333333334,6.066666666666667,0)" xlink:href="#bO"/><use transform="matrix(0.013333333333333334,0,0,0.013333333333333334,12.653333333333334,0)" xlink:href="#bR"/><use transform="matrix(0.013333333333333334,0,0,0.013333333333333334,18.6,0)" xlink:href="#bM"/></g><path fill="#4c535d" d="M-1-47l15-67c1-3 3-5 6-2 48 35 106 52 164 52 90 0 132-50 132-108 0-55-35-90-101-131-88-55-141-97-141-189 0-90 69-179 209-179 66 0 116 15 145 34 7 21-9 50-11 74-1 3-3 4-6 2-40-26-84-37-136-37-91 0-123 55-123 102 0 52 42 82 104 121 95 59 142 107 142 195 0 101-78 190-223 190C101 10 42-11 3-38c-3-3-4-5-4-9" id="bS"/><path fill="#4c535d" d="M275-496c106 0 177 72 177 204 0 148-91 302-247 302C94 10 23-63 23-191c0-155 98-305 252-305zm-9 69c-93 0-164 109-164 235 0 72 31 133 110 133 87 0 159-104 160-236 1-66-26-132-106-132" id="bT"/><path fill="#4c535d" d="M-30 194l16-61c0-3 3-4 6-2 70 36 183 41 240-12 32-30 50-70 67-150C173 30 24-25 24-193c0-156 118-303 303-303 59 0 101 11 129 20 10 13-9 34-7 50L385-68c-15 84-25 120-41 154-50 113-143 144-238 144-50 0-97-9-133-28-3-2-4-5-3-8zm343-296l56-318c-143-38-265 73-265 217 0 72 31 127 118 127 25 0 58-5 91-26" id="bU"/><g id="L"><use transform="matrix(0.013333333333333334,0,0,0.013333333333333334,0,0)" xlink:href="#bS"/><use transform="matrix(0.013333333333333334,0,0,0.013333333333333334,5.973333333333334,0)" xlink:href="#bP"/><use transform="matrix(0.013333333333333334,0,0,0.013333333333333334,9.666666666666668,0)" xlink:href="#bT"/><use transform="matrix(0.013333333333333334,0,0,0.013333333333333334,16.213333333333335,0)" xlink:href="#bL"/><use transform="matrix(0.013333333333333334,0,0,0.013333333333333334,20.533333333333335,0)" xlink:href="#bO"/><use transform="matrix(0.013333333333333334,0,0,0.013333333333333334,27.12,0)" xlink:href="#bU"/><use transform="matrix(0.013333333333333334,0,0,0.013333333333333334,33.733333333333334,0)" xlink:href="#bM"/></g><path fill="#4c535d" d="M476-268l-150-3c-3 0-4-1-4-5l10-58c1-4 3-5 6-5h226c4 0 4 2 4 5L516-35c-1 5-4 9-9 11C285 66 45-19 45-279c0-213 147-392 386-392 76 0 134 14 164 32 4 2 3 5 2 9l-13 62c-1 5-4 5-8 3-42-24-95-32-151-32-189 0-297 143-297 314 0 125 72 222 213 222 43 0 75-6 102-18" id="bV"/><path fill="#4c535d" d="M21-5c26-155 60-317 80-476 1-3 1-5 6-5h61c4 0 5 1 6 4 0 9-4 43-7 68 45-49 97-82 169-82 60 0 139 34 110 193L393-5c-1 3-2 5-5 5h-68c-3 0-6-2-5-6l54-308c11-66-2-113-62-113-57 0-141 49-154 120L100-5c-1 4-2 5-6 5H26c-4 0-5-2-5-5" id="bW"/><path fill="#4c535d" d="M366 0H-30c-3 0-4-2-4-5 6-18 4-44 16-56 40-28 103-72 210-166 113-101 139-171 139-230 0-67-41-116-122-116-52 0-107 16-149 43-3 2-5 1-4-4 7-25 7-56 19-76 41-23 90-37 152-37 101 0 182 62 182 181 0 84-36 166-145 263-83 75-131 111-164 136 69-5 206-2 290-3 3 0 4 1 3 4L372-4c-2 3-2 4-6 4" id="bX"/><path fill="#4c535d" d="M14 166c-19 9-53 2-79 4-4 0-6-3-2-7C109-11 198-204 190-431c-3-109-40-236-91-322-1-3 0-7 4-7 23 2 56-5 71 5 41 64 85 191 89 322 9 259-109 468-249 599" id="bY"/><g id="M"><use transform="matrix(0.013333333333333334,0,0,0.013333333333333334,0,0)" xlink:href="#bV"/><use transform="matrix(0.013333333333333334,0,0,0.013333333333333334,8.386666666666667,0)" xlink:href="#bM"/><use transform="matrix(0.013333333333333334,0,0,0.013333333333333334,14.16,0)" xlink:href="#bW"/><use transform="matrix(0.013333333333333334,0,0,0.013333333333333334,21.026666666666667,0)" xlink:href="#bX"/><use transform="matrix(0.013333333333333334,0,0,0.013333333333333334,26.933333333333334,0)" xlink:href="#bY"/></g><path d="M311-698L108 38c-15 7-44 1-64 3-4 0-5-1-4-5l203-736c14-9 44-2 64-4 4 0 5 2 4 6" id="bZ"/><path d="M323-75v-157c-14-2-36-4-66-4-97 0-144 33-144 89 0 45 31 89 119 89 32 0 62-5 91-17zm81-233c0 91 1 191 0 275C258 41 36 32 31-147c-4-128 147-165 292-151 2-57-3-124-113-124-48 0-92 11-127 30-3 1-7 0-7-5 3-22-6-55 5-69 39-19 89-30 142-30 128 0 181 84 181 188" id="ca"/><path d="M451-27C262 61 35-3 35-239c0-166 143-285 335-251v-221c0-5 2-6 6-6h72c5 0 6 2 6 5 1 225-3 456 2 678 0 4-1 5-5 7zm-81-49v-338c-134-40-254 46-250 171C125-80 243-39 370-76" id="cb"/><path d="M265-496c141 0 228 108 228 252 0 152-94 254-228 254C104 10 35-120 35-243c0-141 90-253 230-253zm-4 72c-84 0-142 72-142 179 0 102 53 183 148 183 71 0 141-56 141-180 0-93-43-182-147-182" id="cc"/><path d="M77-717h70c5 0 7 0 7 6v235c170-67 342 39 336 214C482-30 279 53 76-10c-4-1-6-5-6-9v-692c0-5 2-6 7-6zm328 462c0-102-60-168-156-168-43 0-70 7-95 17v336c132 31 251-31 251-185" id="cd"/><path d="M440-237c-86 8-224 2-321 4-1 95 54 170 167 170 44 0 86-8 125-27 3-2 5 0 5 4-2 21 5 54-5 67-34 17-78 29-141 29C97 10 35-117 35-239c0-140 82-257 221-257 163 0 209 131 191 253 0 3-3 6-7 6zm-134-58c58-5 64 10 65-13 0-36-24-119-118-119-83 0-124 65-133 132h186" id="ce"/><path d="M267-216H43c-4 0-5-1-5-5v-63c0-3 1-5 5-5h224c3 0 5 1 5 5v63c0 4-1 5-5 5" id="cf"/><path d="M135-486c16 4 10 33 14 53 78-81 227-91 283 10 42-41 94-73 167-73 74 0 162 39 162 191V-6c0 4-2 6-7 6h-69c-5 0-7-2-7-7v-292c0-68-31-123-102-123-50 0-91 22-123 58 11 108 2 241 5 357 0 5-2 7-7 7h-70c-5 0-7-2-7-7v-295c0-76-35-120-100-120-47 0-83 18-121 56V-6c0 4-1 6-6 6H76c-5 0-6-2-6-7-2-154 4-327-4-473 0-4 1-6 6-6h63" id="cg"/><path d="M134-486c18 5 10 28 15 56 44-44 95-66 153-66 71 0 163 35 163 193V-7c0 5-2 7-7 7h-70c-5 0-7-2-7-8v-287c0-76-33-127-103-127-51 0-93 23-125 61V-7c0 5-1 7-6 7H76c-4 0-6-2-6-7-2-155 4-326-4-473 0-4 1-6 6-6h62" id="ch"/><path d="M412 69c-1-91-145-77-239-84-41 29-67 71-67 93 0 46 55 93 147 93 110 0 159-52 159-102zM236-432c-63 0-104 41-104 105 0 61 36 105 103 105 63 0 102-38 102-103 0-58-31-107-101-107zm1-64c80 0 148 12 237 10 5 0 6 2 6 6v57c0 4-1 6-6 6-26 0-68-2-92-4 18 19 35 51 35 97-1 129-112 184-236 159-12 30-4 58 13 78l102 5c124 6 194 51 194 139 0 100-95 179-242 179-148 0-221-78-221-152 0-34 29-79 98-137-29-39-32-95-7-138-41-27-68-72-68-135 0-93 69-170 187-170" id="ci"/><path d="M317-398c-28-17-74-29-116-29-66 0-88 32-88 62s18 51 93 81c101 39 142 80 142 151 0 92-75 143-179 143C114 10 64-2 35-19c-11-16-2-52-5-76 0-5 3-7 6-5 59 51 230 63 230-25 0-37-22-59-91-86C75-249 33-290 33-361c0-72 61-135 170-135 55 0 96 10 117 22 11 15 2 48 5 71 0 5-3 8-8 5" id="cj"/><path d="M279-65c-3 20 7 50-6 61C177 29 81 9 81-121v-293H13c-6-1-7-3-7-8v-57c0-5 2-7 7-7h68c1-37 5-106 9-128 1-4 3-6 7-7l68-11c4-1 6 0 6 4-3 35-6 93-6 142h106c4 0 6 2 6 7v59c0 4-2 6-6 6H165v281c-7 67 51 85 108 64 3-1 6-1 6 4" id="ck"/><path d="M70-8v-471c0-5 2-7 7-7h71c4 0 6 1 6 6V-7c0 5-1 7-7 7H78c-5 0-8-2-8-8zm42-574c-31 0-50-21-50-51s21-51 51-51c32 0 50 22 50 51 0 30-20 51-51 51" id="cl"/><g id="N"><use transform="matrix(0.013333333333333334,0,0,0.013333333333333334,0,0)" xlink:href="#bZ"/><use transform="matrix(0.013333333333333334,0,0,0.013333333333333334,4.680000000000001,0)" xlink:href="#ca"/><use transform="matrix(0.013333333333333334,0,0,0.013333333333333334,11,0)" xlink:href="#cb"/><use transform="matrix(0.013333333333333334,0,0,0.013333333333333334,17.986666666666668,0)" xlink:href="#cc"/><use transform="matrix(0.013333333333333334,0,0,0.013333333333333334,25.013333333333335,0)" xlink:href="#cd"/><use transform="matrix(0.013333333333333334,0,0,0.013333333333333334,32.120000000000005,0)" xlink:href="#ce"/><use transform="matrix(0.013333333333333334,0,0,0.013333333333333334,38.81333333333334,0)" xlink:href="#cf"/><use transform="matrix(0.013333333333333334,0,0,0.013333333333333334,42.94666666666667,0)" xlink:href="#cg"/><use transform="matrix(0.013333333333333334,0,0,0.013333333333333334,54.040000000000006,0)" xlink:href="#ca"/><use transform="matrix(0.013333333333333334,0,0,0.013333333333333334,60.36000000000001,0)" xlink:href="#ch"/><use transform="matrix(0.013333333333333334,0,0,0.013333333333333334,67.49333333333334,0)" xlink:href="#ca"/><use transform="matrix(0.013333333333333334,0,0,0.013333333333333334,73.81333333333333,0)" xlink:href="#ci"/><use transform="matrix(0.013333333333333334,0,0,0.013333333333333334,80.34666666666666,0)" xlink:href="#ce"/><use transform="matrix(0.013333333333333334,0,0,0.013333333333333334,86.89333333333333,0)" xlink:href="#cb"/><use transform="matrix(0.013333333333333334,0,0,0.013333333333333334,93.88,0)" xlink:href="#cf"/><use transform="matrix(0.013333333333333334,0,0,0.013333333333333334,98.08,0)" xlink:href="#cj"/><use transform="matrix(0.013333333333333334,0,0,0.013333333333333334,103.22666666666667,0)" xlink:href="#ck"/><use transform="matrix(0.013333333333333334,0,0,0.013333333333333334,107.30666666666667,0)" xlink:href="#ca"/><use transform="matrix(0.013333333333333334,0,0,0.013333333333333334,113.62666666666668,0)" xlink:href="#ci"/><use transform="matrix(0.013333333333333334,0,0,0.013333333333333334,120.16000000000001,0)" xlink:href="#cl"/><use transform="matrix(0.013333333333333334,0,0,0.013333333333333334,123.16000000000001,0)" xlink:href="#ch"/><use transform="matrix(0.013333333333333334,0,0,0.013333333333333334,130.04,0)" xlink:href="#ci"/><use transform="matrix(0.013333333333333334,0,0,0.013333333333333334,136.57333333333332,0)" xlink:href="#bZ"/></g><g id="O"><use transform="matrix(0.022222222222222223,0,0,0.022222222222222223,0,0)" xlink:href="#au"/><use transform="matrix(0.022222222222222223,0,0,0.022222222222222223,14.666666666666668,0)" xlink:href="#ao"/><use transform="matrix(0.022222222222222223,0,0,0.022222222222222223,25.68888888888889,0)" xlink:href="#ap"/><use transform="matrix(0.022222222222222223,0,0,0.022222222222222223,32.84444444444445,0)" xlink:href="#ao"/><use transform="matrix(0.022222222222222223,0,0,0.022222222222222223,43.866666666666674,0)" xlink:href="#ad"/><use transform="matrix(0.022222222222222223,0,0,0.022222222222222223,55.97777777777779,0)" xlink:href="#ai"/><use transform="matrix(0.022222222222222223,0,0,0.022222222222222223,63.911111111111126,0)" xlink:href="#aj"/><use transform="matrix(0.022222222222222223,0,0,0.022222222222222223,69.42222222222223,0)" xlink:href="#al"/><use transform="matrix(0.022222222222222223,0,0,0.022222222222222223,79.11111111111113,0)" xlink:href="#bF"/><use transform="matrix(0.022222222222222223,0,0,0.022222222222222223,90.8888888888889,0)" xlink:href="#aN"/></g><g id="P"><use transform="matrix(0.017777777777777778,0,0,0.017777777777777778,0,0)" xlink:href="#au"/><use transform="matrix(0.017777777777777778,0,0,0.017777777777777778,11.786666666666665,0)" xlink:href="#ae"/><use transform="matrix(0.017777777777777778,0,0,0.017777777777777778,20.657777777777778,0)" xlink:href="#an"/><use transform="matrix(0.017777777777777778,0,0,0.017777777777777778,25.546666666666667,0)" xlink:href="#ap"/><use transform="matrix(0.017777777777777778,0,0,0.017777777777777778,31.27111111111111,0)" xlink:href="#ao"/></g><g id="Q"><use transform="matrix(0.017777777777777778,0,0,0.017777777777777778,0,0)" xlink:href="#bC"/><use transform="matrix(0.017777777777777778,0,0,0.017777777777777778,9.28,0)" xlink:href="#ao"/><use transform="matrix(0.017777777777777778,0,0,0.017777777777777778,18.09777777777778,0)" xlink:href="#bF"/><use transform="matrix(0.017777777777777778,0,0,0.017777777777777778,26.968888888888895,0)" xlink:href="#ae"/></g><g id="R"><use transform="matrix(0.017777777777777778,0,0,0.017777777777777778,0,0)" xlink:href="#bG"/><use transform="matrix(0.017777777777777778,0,0,0.017777777777777778,10.08,0)" xlink:href="#ao"/><use transform="matrix(0.017777777777777778,0,0,0.017777777777777778,18.897777777777776,0)" xlink:href="#ap"/><use transform="matrix(0.017777777777777778,0,0,0.017777777777777778,24.622222222222216,0)" xlink:href="#ao"/><use transform="matrix(0.017777777777777778,0,0,0.017777777777777778,33.44,0)" xlink:href="#an"/><use transform="matrix(0.017777777777777778,0,0,0.017777777777777778,38.151111111111106,0)" xlink:href="#ac"/><use transform="matrix(0.017777777777777778,0,0,0.017777777777777778,47.69777777777777,0)" xlink:href="#bD"/></g><path d="M97-656C214-350 282-145 304-82c21-71 72-230 196-573 1-4 3-6 8-6h73c4 0 6 2 5 7L348-6c-2 5-4 6-9 6h-79c-5 0-7-1-9-5L8-654c-2-4-1-7 5-7h77c5 0 6 1 7 5" id="cm"/><path d="M548 0h-79c-6 0-8-2-9-7-75-265-92-349-105-395-18 80-54 202-111 395-2 6-5 7-10 7h-77c-8 0-10-2-11-7L16-479c-2-4 0-7 5-7h75c3 0 6 1 7 5 74 275 91 367 98 402h2c8-34 26-117 111-400 1-5 2-7 7-7h81c4 0 6 2 7 6 81 290 95 363 103 402h2c11-47 26-132 104-403 1-3 3-5 7-5h70c4 0 6 2 5 6L557-6c-2 4-3 6-9 6" id="cn"/><g id="S"><use transform="matrix(0.013333333333333334,0,0,0.013333333333333334,0,0)" xlink:href="#cm"/><use transform="matrix(0.013333333333333334,0,0,0.013333333333333334,7.706666666666667,0)" xlink:href="#cl"/><use transform="matrix(0.013333333333333334,0,0,0.013333333333333334,10.706666666666667,0)" xlink:href="#ce"/><use transform="matrix(0.013333333333333334,0,0,0.013333333333333334,17.346666666666668,0)" xlink:href="#cn"/></g><path d="M217-7v-578H3c-4 0-6-2-5-7l10-63c1-4 3-6 8-6h489c5 0 7 2 8 7l7 62c1 5-1 7-5 7H301V-8c0 6-2 8-7 8h-69c-5 0-8-2-8-7" id="co"/><path d="M217-5c-5 16-25 15-51 15-49 0-96-17-96-111v-610c0-5 2-6 7-6h70c5 0 6 2 6 6v603c0 48 26 52 60 45 3 0 4 2 4 6v52" id="cp"/><g id="T"><use transform="matrix(0.013333333333333334,0,0,0.013333333333333334,0,0)" xlink:href="#co"/><use transform="matrix(0.013333333333333334,0,0,0.013333333333333334,5.933333333333334,0)" xlink:href="#ca"/><use transform="matrix(0.013333333333333334,0,0,0.013333333333333334,12.253333333333334,0)" xlink:href="#cd"/><use transform="matrix(0.013333333333333334,0,0,0.013333333333333334,19.253333333333334,0)" xlink:href="#cp"/><use transform="matrix(0.013333333333333334,0,0,0.013333333333333334,22.46666666666667,0)" xlink:href="#ce"/></g><path d="M437 0H31c-7 0-7-3-7-8 2-26-5-60 4-79 43-33 109-84 166-136 100-93 118-150 118-201 0-65-34-110-118-110-62 0-104 18-147 41-5 3-8 1-8-4v-92c0-5 1-8 5-11 51-27 109-43 176-43 147 0 215 96 215 203 0 75-28 148-113 231-53 51-89 81-124 108 56-5 185-2 262-3 7 0 9 2 8 7L447-7c-2 5-4 7-10 7" id="cq"/><use transform="matrix(0.017777777777777778,0,0,0.017777777777777778,0,0)" xlink:href="#cq" id="U"/><path d="M243 0H136c-6 0-8-2-8-7v-503c-29 16-77 31-105 36-6 1-8 0-8-6v-85c0-5 1-7 6-8 47-12 101-35 139-60 22-8 56-2 84-4 4 0 5 2 5 7V-7c0 5-2 7-6 7" id="cr"/><use transform="matrix(0.017777777777777778,0,0,0.017777777777777778,0,0)" xlink:href="#cr" id="V"/><path d="M335-188c0-78-89-96-188-89-5 0-7-2-7-7v-91c0-6 1-9 6-9 84 5 165-8 165-74 0-47-37-78-113-78-52 0-97 13-144 38-6 3-7 0-7-4v-92c0-5-1-7 5-10 44-24 103-39 169-39 129 0 208 68 208 169 0 71-49 115-91 133 52 15 121 59 121 156C459-59 346 10 209 10 144 10 88 1 43-23c-5-2-6-8-6-13v-99c0-4 5-6 9-4 55 29 103 42 159 42 93 0 130-40 130-91" id="cs"/><use transform="matrix(0.017777777777777778,0,0,0.017777777777777778,0,0)" xlink:href="#cs" id="W"/><path d="M317-151H34c-6 0-8-2-8-6 3-30-9-72 5-92l254-378c4-5 7-6 14-6h125c5 0 8 2 8 7v377h76c6 0 7 3 6 7l-13 86c-13 11-47 2-69 5V-8c0 6-3 8-7 8H325c-5 0-8-3-8-8v-143zm0-98c-2-81 3-234 5-274-25 50-142 229-172 274h167" id="ct"/><use transform="matrix(0.017777777777777778,0,0,0.017777777777777778,0,0)" xlink:href="#ct" id="X"/><path d="M402-527H195c-7 28-21 84-27 109 206 22 289 98 289 220 0 124-97 208-245 208C147 10 93-1 52-21c-4-2-6-5-6-12v-98c0-5 4-6 7-4 44 23 99 39 158 39 91 0 124-43 124-94 0-80-78-118-274-134-5 0-9-1-9-7 0-66 65-259 68-295 2-6 3-7 9-7h303c5 0 7 2 5 8l-26 91c-1 5-3 7-9 7" id="cu"/><use transform="matrix(0.017777777777777778,0,0,0.017777777777777778,0,0)" xlink:href="#cu" id="Y"/><path d="M271-312c-44 0-80 13-107 32-13 106 35 185 118 185 66 0 105-44 105-107 0-68-44-110-116-110zm180-325v92c0 3 0 5-5 6-116 15-218 70-259 162 29-17 69-32 121-32 111 0 202 74 202 202 0 109-79 217-232 217S42-105 42-249c0-216 181-366 405-394 4 0 4 3 4 6" id="cv"/><use transform="matrix(0.017777777777777778,0,0,0.017777777777777778,0,0)" xlink:href="#cv" id="Z"/></defs></g></svg>